<?xml version="1.0" encoding="utf-8"?>
<!-- Generator: Adobe Illustrator 27.6.1, SVG Export Plug-In . SVG Version: 6.00 Build 0)  -->
<svg version="1.1" id="Layer_1" xmlns="http://www.w3.org/2000/svg" xmlns:xlink="http://www.w3.org/1999/xlink" x="0px" y="0px"
	 viewBox="0 0 91 98" style="enable-background:new 0 0 91 98;" xml:space="preserve">
<style type="text/css">
	.st0{fill:#FFFFFF;}
</style>
<g id="Group_18119" transform="translate(0 0)">
	<path id="Path_13539" class="st0" d="M44.4,54.5L27.5,32.9c-0.5-0.6-0.6-1.5-0.2-2.2c0.3-0.6,12.6-18,60.2-15.2c1.1,0,2,0.9,2,2.1
		c0,1.1-0.9,2-2,2c0,0,0,0,0,0c-38.6-2-53,9-55.7,12L47.6,52c0.7,0.9,0.6,2.1-0.3,2.8c0,0,0,0-0.1,0.1
		C46.4,55.5,45.2,55.3,44.4,54.5"/>
	<path id="Path_13540" class="st0" d="M32.3,94.9c-0.5-0.6-12.8-14.3-9.1-24.9c1.9-5.4,7.5-8.9,16.7-10.2c9.6-1.4,15.4-4.2,16.9-8.2
		c1.7-4.5-2.6-9.5-2.7-9.5L43.9,29.7c-0.7-0.9-0.6-2.2,0.3-2.9c0.9-0.7,2.1-0.6,2.9,0.2c0,0,0,0,0,0l10.2,12.3
		c0.2,0.2,5.9,6.8,3.4,13.6c-2,5.5-8.8,9.2-20.1,10.9C33,65,28.4,67.5,27.1,71.4c-2.4,6.9,5.1,17.3,8.2,20.7C36,93,36,94.3,35.2,95
		C34.3,95.7,33.1,95.7,32.3,94.9"/>
	<path id="Path_13541" class="st0" d="M81.3,92.4l-27.4-27c-0.8-0.8-0.8-2.1,0-2.9c0.8-0.8,2.1-0.8,2.9,0c0,0,0,0,0,0l27.4,27
		c0.8,0.7,0.9,2,0.2,2.9c-0.7,0.8-1.9,1-2.8,0.3C81.5,92.6,81.4,92.5,81.3,92.4"/>
	<path id="Path_13542" class="st0" d="M6.1,39.7c-4.9-4.6-3-12.6-2.9-13c0.3-1.1,1.3-1.8,2.4-1.5c1.1,0.3,1.8,1.3,1.5,2.4
		c0,0,0,0,0,0.1c0,0.1-1.4,6.1,1.7,9c2.4,2.3,7.4,2.3,14.3,0c1.1-0.3,2.2,0.2,2.6,1.3c0,0,0,0,0,0c0.3,1.1-0.2,2.2-1.3,2.6
		C12.3,44.8,8.1,41.6,6.1,39.7"/>
	<path id="Path_13543" class="st0" d="M30.8,21.1c5.2,0,9.5-4.2,9.5-9.4c0-5.2-4.2-9.5-9.4-9.5s-9.5,4.2-9.5,9.4c0,0,0,0,0,0.1
		C21.4,16.9,25.6,21.1,30.8,21.1 M30.8,6.3c3,0,5.4,2.4,5.4,5.3S33.8,17,30.9,17c-3,0-5.4-2.4-5.4-5.3c0,0,0,0,0,0
		C25.4,8.7,27.8,6.3,30.8,6.3"/>
</g>
</svg>
