<?xml version="1.0" encoding="utf-8"?>
<!-- Generator: Adobe Illustrator 27.6.1, SVG Export Plug-In . SVG Version: 6.00 Build 0)  -->
<svg version="1.1" id="Layer_1" xmlns="http://www.w3.org/2000/svg" xmlns:xlink="http://www.w3.org/1999/xlink" x="0px" y="0px"
	 viewBox="0 0 81 91" style="enable-background:new 0 0 81 91;" xml:space="preserve">
<style type="text/css">
	.st0{fill-rule:evenodd;clip-rule:evenodd;fill:#FFFFFF;}
</style>
<g id="Group_18145">
	<path id="Path_13547" class="st0" d="M60.1,1.9c-0.3,0.6-0.6,1.3-0.7,1.9C59,5.5,58.2,7,57.1,8.3C55.9,9.5,56,9.7,57.3,11
		c1.1,1,1.2,1.3,1.7,3.2c0.3,1.4,0.6,1.8,1.3,1.8c0.6,0,1-0.4,1.1-1c0.4-1.2,1.1-2.4,1.8-3.5c0.4-0.5,0.8-0.9,1.2-1.2
		c0.5-0.4,0.7-0.6,0.7-0.9c0.1-0.6-0.2-0.8-1.2-1.4c-1.2-0.6-1.6-1.5-2.1-4.3c-0.1-0.6-0.2-1.2-0.5-1.7C60.9,1.6,60.4,1.5,60.1,1.9
		C60.1,1.9,60.1,1.9,60.1,1.9 M60.9,7.7c0.2,0.5,0.5,0.9,0.8,1.2c0.5,0.4,0.5,0.4-0.3,1.3c-0.3,0.3-0.5,0.7-0.7,1.1
		c-0.1,0.2-0.2,0.5-0.3,0.5c-0.1-0.1-0.2-0.3-0.2-0.5c-0.2-0.4-0.5-0.8-0.8-1.2l-0.7-0.7l0.5-0.6c0.3-0.4,0.6-0.9,0.8-1.3
		c0.1-0.2,0.2-0.5,0.4-0.7C60.5,6.8,60.7,7.2,60.9,7.7"/>
	<path id="Path_13548" class="st0" d="M73.1,8.8c-0.3,0.3-0.5,0.7-0.5,1.1c-0.2,1.3-0.5,2.5-1.1,3.7c-1,2.2-2.5,4.2-4.5,5.6
		c-0.7,0.4-0.7,0.5-0.8,1c-0.1,0.7,0,1.1,0.5,1.2c1.3,0.4,2.4,1.3,3.2,2.4c0.7,0.9,0.9,1.4,1.4,3.8c0.3,1.5,0.5,1.9,0.8,2.2
		c0.4,0.4,1,0.4,1.4,0c0.3-0.3,0.4-0.5,0.5-2c0-1.8,0.7-3.6,2-4.9c0.5-0.5,1-0.9,1.6-1.3c0.9-0.5,1.1-0.8,1.3-1.6
		c0.1-0.8-0.1-1.2-1.2-1.7c-1.8-0.8-2.6-2.1-2.8-4.3c-0.1-0.7-0.2-2-0.2-2.9c-0.1-1.8-0.3-2.3-1-2.3C73.5,8.7,73.3,8.8,73.1,8.8
		 M73.4,16.7c0.4,1.1,1.2,2.1,2.1,2.8c0.2,0.1,0.4,0.3,0.6,0.5c0,0.1-0.3,0.4-0.8,0.7c-0.9,0.6-1.6,1.5-2.1,2.5L72.7,24l-0.5-0.8
		c-0.5-0.7-1.1-1.4-1.8-2c-1.4-1.3-1.3-1.2-0.4-1.8c0.9-0.9,1.8-2,2.4-3.1C72.9,15.3,72.8,15.2,73.4,16.7"/>
	<path id="Path_13549" class="st0" d="M34.1,13.5c-2.6,0.3-5.5,1-6,1.5c-0.3,0.2-0.7,0.4-1.1,0.5c-3,1-5.9,2.4-8.6,4.2
		c-9,6-14.8,15.8-16.2,27.3c-0.2,2.9-0.2,5.8,0,8.7c0.7,6,2.7,11.7,6,16.7c1.3,2,2.7,3.8,4.4,5.5c4.3,4.4,9.7,7.6,15.6,9.2
		c7.5,2,15.5,1.3,22.6-1.9C57,82.3,62.4,77.8,66.2,72c6.8-10.4,8.3-23.3,4.1-35c-4.7-12.9-15.8-22-28.8-23.5
		C39,13.3,36.5,13.3,34.1,13.5 M42,15.9c6.9,1,13.2,4.2,18.1,9.2c5.6,5.6,9.1,12.9,10.1,20.8c0.3,2.9,0.3,5.8,0.1,8.7
		c-0.9,8.3-4.6,16-10.5,22c-2.5,2.6-5.5,4.7-8.7,6.3c-12.4,6.1-27.4,3.5-36.9-6.6c-3.3-3.3-5.8-7.3-7.5-11.7
		C4,57.8,3.4,50.4,4.9,43.3c1.8-8.8,6.8-16.6,14.1-21.9c0.4-0.3,0.9-0.6,1.3-0.9c0.1,0,0.1,0.2,0.1,0.5c0,0.5,0.3,1,0.8,1
		c0.5-0.2,0.9-0.5,1.3-0.8c2.3-1.8,4.7-3.3,7.3-4.6c1.8-0.4,3.6-0.7,5.4-0.9C37.4,15.6,39.7,15.6,42,15.9"/>
	<path id="Path_13550" class="st0" d="M24.5,38.8c-0.3,0.2-0.6,0.4-0.8,0.7c-0.5,1-0.8,2-0.8,3.1c-0.1,0.6,0.1,1.2,0.4,1.7
		c0.5,1,1,1.4,1.7,1.4c1.4,0,2.4-1.7,2.4-4c0.1-0.7,0-1.3-0.3-1.9c-0.3-0.9-1.3-1.5-2.2-1.2C24.7,38.7,24.6,38.7,24.5,38.8"/>
	<path id="Path_13551" class="st0" d="M49.1,39.1c-1,0.4-1.4,1.3-1.4,3.8c0,1.4,0,1.7,0.3,2.1c0.4,0.8,1.5,1.2,2.3,0.7
		c0,0,0.1,0,0.1,0c1.1-1,1.7-2.4,1.6-3.9c0.2-0.9-0.2-1.8-0.9-2.4C50.6,38.9,49.8,38.7,49.1,39.1"/>
	<path id="Path_13552" class="st0" d="M56.5,50.7c-0.4,0.4-0.8,0.8-1,1.4c-1.5,2.5-4.7,4.6-9,6c-3.7,1.3-7.6,1.8-11.5,1.7
		c-1.6,0.1-3.2,0-4.8-0.3c-3.1-0.6-6.1-1.8-8.7-3.5c-1.9-1.3-2.5-1.4-2.7-0.8c-0.2,0.4-0.1,0.6,1.2,1.8c2,1.8,4.4,3.2,7,4
		c5.9,1.9,14.2,1.5,21.3-1c2.1-0.7,4-1.8,5.8-3.1c0.3-0.3,0.6-0.5,1-0.6c-0.4,2-0.8,4-1.5,6c-0.8,2.6-2.2,5-4.2,6.9
		c-2.2,2.1-4.9,3.4-9,4.2c-2.3,0.5-4.7,0.5-7,0c-1.7-0.5-3.3-1.4-4.5-2.6c-2-2.2-3.9-4.5-5.5-7c-0.7-1-3.6-6.4-3.6-6.7
		c0-0.2-0.5-0.6-0.8-0.6c-0.7,0.1-1.2,0.7-1.2,1.4c1,2.4,2.2,4.8,3.6,7.1c2.6,4,6,7.9,7.8,9.1c1.3,0.8,2.7,1.4,4.2,1.7
		c2.3,0.4,4.6,0.4,6.9,0c5.2-1.1,8.3-2.6,11.1-5.4c2.5-2.5,3.9-5.2,5.1-9.5c0.6-2.3,1.8-8.3,1.8-9C58.2,50.9,57.3,50.3,56.5,50.7"/>
</g>
</svg>
