<?xml version="1.0" encoding="utf-8"?>
<!-- Generator: Adobe Illustrator 27.6.1, SVG Export Plug-In . SVG Version: 6.00 Build 0)  -->
<svg version="1.1" id="Layer_1" xmlns="http://www.w3.org/2000/svg" xmlns:xlink="http://www.w3.org/1999/xlink" x="0px" y="0px"
	 viewBox="0 0 175 72" style="enable-background:new 0 0 175 72;" xml:space="preserve">
<style type="text/css">
	.st0{fill:#FFFFFF;}
</style>
<g>
	<path class="st0" d="M61.1,60.3L61.1,60.3C61.1,60.2,61.1,60.2,61.1,60.3c-0.2-0.1-0.3,0-0.4,0c-0.2-0.1-0.4,0.1-0.6,0.1
		c-0.1,0-0.1,0.1-0.1,0.2c-0.1,0-0.1,0-0.2,0.1c0-0.2-0.2-0.1-0.3-0.1s-0.3,0-0.4,0c0,0-0.1,0.1-0.1,0.2c0-0.2-0.1-0.2-0.1-0.3
		c0,0-0.1,0-0.2,0c0,0.1,0.1,0.1,0.1,0.1c-0.2,0.1-0.3,0.1-0.4,0.1c-0.2,0.1-0.3,0.1-0.4,0h-0.1c-0.2,0.2-0.3,0-0.4,0
		c-0.2,0-0.3,0.1-0.5,0.3c0,0.1,0.1,0.1,0.2,0.2c-0.1,0-0.2,0-0.3,0c0,0,0-0.1-0.1-0.1c0-0.1-0.1-0.1-0.1-0.2c-0.1,0-0.2,0-0.2,0.1
		c-0.1,0.1-0.2,0.1-0.4,0c-0.1-0.1-0.2,0-0.4,0c-0.1-0.1-0.2-0.2-0.4,0.1c0-0.1,0-0.1,0-0.1c-0.2,0.3-0.4,0-0.5,0
		c-0.1-0.1-0.4-0.1-0.4,0c-0.1,0.2-0.3,0.2-0.4,0.2c-0.3,0.1-0.5,0.1-0.7,0.3c-0.1,0.1-0.2,0.2-0.3,0.3c-0.1,0-0.3-0.1-0.4-0.1
		c-0.1-0.1-0.2-0.1-0.2,0c-0.2,0.1-0.3,0.2-0.4,0.1c-0.2,0-0.3,0-0.4,0.1c0,0,0.1,0,0.1,0.1c-0.2,0.1-0.3,0.2-0.4,0.2
		c0,0.1-0.1,0-0.1,0c-0.1,0.1-0.1,0.2-0.3,0.1c0-0.1-0.1-0.1-0.2,0c-0.2,0.1-0.2,0.1-0.4,0.1c0,0.1-0.1,0.3-0.2,0.1H50
		c-0.4,0.1-0.8,0-1.2,0.1c-0.2,0-0.3,0.1-0.4,0.1c0.3,0.3,0.2,0.3,0.2,0.3c-0.2-0.1-0.4,0-0.5,0.1c-0.3,0.1-0.5,0.1-0.8,0
		c-0.1,0-0.2,0.1-0.3,0.1s-0.1,0.1-0.1,0.1c-0.2-0.2-0.3,0-0.4-0.1c-0.2,0-0.3,0.2-0.3,0.2c-0.1,0.1-0.1,0.1-0.2,0.1v-0.1
		c-0.3,0-0.5,0-0.8,0.1c-0.3,0-0.4,0.2-0.7,0.2c-0.2-0.1-0.4,0.1-0.5,0.1c-0.3,0.1-0.6,0.1-0.9,0.2c-0.2,0-0.4-0.1-0.4,0.1
		c0,0.1-0.2,0-0.3,0c-0.1-0.1-0.2-0.1-0.3,0c-0.1,0-0.2,0-0.3,0c-0.3,0-0.5-0.1-0.8,0c-0.1,0-0.2,0-0.3,0.1
		c-0.3,0.2-0.5,0.3-0.8,0.5c-0.1,0-0.3,0.1-0.4,0c-0.2-0.2-0.4,0-0.5,0c-0.2,0.1-0.4,0.2-0.7,0.2C38,65,37.8,65,37.4,65
		c-0.2,0.1-0.4,0.1-0.5,0.2c0,0.2-0.2,0.3-0.4,0.2c-0.2,0-0.4,0-0.6,0.1c-0.4,0.1-0.7,0.2-1.1,0.3c0,0,0,0.1,0,0.2
		c-0.1-0.1-0.1-0.1-0.1-0.2c-0.1,0.1-0.1,0.1-0.1,0.2c-0.1-0.2-0.2-0.2-0.4-0.1c-0.3,0-0.5,0.3-0.9,0.3c0-0.1-0.1,0-0.1,0.1
		c-0.1,0.2-0.2,0.2-0.4,0.1c-0.1,0-0.3,0-0.4,0c0,0.1,0,0.2,0,0.1c-0.1,0-0.2,0-0.3,0v-0.1c-0.1,0.1-0.2,0.2-0.3,0.2
		c-0.1,0.1-0.2,0.1-0.3,0.1c-0.1,0-0.1,0-0.1,0c0.1-0.1,0.2-0.2,0.3-0.3c-0.2,0-0.4-0.1-0.4,0.1c0,0.1-0.2,0.1-0.3,0.1
		c-0.1,0-0.1,0.1-0.1,0.2s0,0.2-0.2,0.1c-0.1-0.1-0.3-0.1-0.4,0.1c0,0,0,0-0.1,0c-0.2,0.1-0.4,0.1-0.7,0.1c0.1,0.1,0.1,0.1,0.1,0.1
		c0,0.1,0,0.1,0,0.1c-0.1,0-0.2,0-0.3,0c-0.1,0-0.2,0-0.3,0c-0.1,0-0.2,0-0.3,0c-0.1,0-0.1,0.1-0.2,0.1c-0.3,0-0.6,0-1,0l-0.1-0.1
		c-0.2,0.1-0.4,0.1-0.4,0.1c-0.3,0.2-0.5,0.1-0.8,0.1c-0.2,0-0.4,0-0.5,0.1c-0.4,0.2-0.9,0.1-1.3,0.2c-0.2,0-0.3,0-0.4,0
		c-0.3-0.1-0.4,0.1-0.5,0.2c0,0,0,0-0.1,0c-0.2-0.1-0.4,0.1-0.5-0.1c-0.2,0-0.4,0-0.6,0c-0.1,0-0.2,0.1-0.2,0.1
		c0,0.1-0.1,0.1-0.2,0.1C21.8,68,21.8,68,21.8,68c-0.2,0.2-0.4,0-0.5,0c0.1,0,0.1,0,0.1,0.1c-0.1,0-0.2,0.1-0.2,0.1
		c-0.2-0.1-0.4-0.1-0.5-0.1s-0.1,0-0.2,0.1c-0.3,0-0.6,0-0.9,0c-0.1,0-0.1,0-0.2,0s-0.3,0-0.4,0.1c-0.1,0-0.1,0-0.2,0
		s-0.2-0.1-0.3-0.1c0,0.1-0.1,0.1-0.1,0.2c-0.1,0-0.3-0.1-0.5-0.1c-0.1,0-0.2,0.1-0.4,0.1c-0.1,0-0.3,0-0.4,0H17
		c0,0.1-0.1,0.1-0.1,0.1c-0.3-0.1-0.4,0-0.6,0c-0.1,0-0.2,0-0.2,0.1c-0.1,0.2-0.2,0.2-0.3,0.2c-0.3,0-0.5-0.1-0.8-0.1
		c-0.2,0-0.3,0.1-0.4,0.2c-0.2,0-0.3,0-0.4,0c-0.2,0-0.4,0-0.5,0s-0.2,0-0.3,0c-0.2,0.3-0.3,0.3-0.5,0.2c-0.1,0-0.2,0-0.3,0
		s-0.3,0.1-0.4,0.1c0,0-0.1,0.1-0.2,0.1c-0.1-0.1-0.2-0.1-0.3-0.1c-0.3,0-0.5-0.1-0.7,0c-0.1,0-0.2,0-0.3,0.1c0,0-0.1,0.1-0.2,0.1
		c-0.1,0-0.3,0.1-0.4,0.1c-0.2,0-0.4-0.1-0.4,0c-0.3,0.1-0.5-0.2-0.6,0c-0.1,0.1-0.4,0-0.5,0.2c0,0,0,0-0.1-0.1c0,0,0,0-0.1,0
		S8.2,69.7,8,69.7c-0.2-0.1-0.5-0.1-0.7-0.1H7.2c-0.2,0.2-0.4,0-0.5,0c0,0,0,0-0.1,0H6.5c-0.4-0.1-0.6,0-1,0c-0.1,0-0.2,0-0.2,0
		c-0.1,0-0.1-0.1-0.2-0.1c-0.2,0.1-0.4,0-0.5-0.1c0,0,0,0-0.1,0c-0.2,0.1-0.4,0-0.7,0c-0.2,0-0.5-0.1-0.7-0.1c0,0-0.1,0-0.1-0.1
		c-0.2,0-0.3-0.2-0.5-0.1c-0.1,0-0.2,0-0.3,0S2,69,1.8,68.9c0,0-0.1,0-0.2-0.1c-0.1,0-0.3-0.1-0.4-0.1c-0.1-0.1-0.3-0.2-0.4-0.3
		c-0.2-0.1-0.2-0.3-0.4-0.4c0.9,1.2,0.8,1,0.6,0.9c-0.2-0.4-0.3-0.7-0.5-1.1c0,0,0.1,0,0.2,0c-0.1-0.2-0.1-0.4-0.1-0.4
		c0-0.1,0-0.3,0-0.4s0-0.2,0-0.3c0.1-0.3,0.2-0.5,0.3-0.6S1,65.8,1,65.7c0.2-0.2,0.3-0.4,0.4-0.5c0,0.1,0.1,0.1,0.2,0.2
		c0.2,0.2,0.4,0.3,0.6,0.5C2.2,66,2.3,66,2.3,66c0.2,0,0.4,0,0.5,0c0.2,0,0.4,0,0.5-0.1c0.3,0,0.5,0,0.7-0.1c0.1,0,0.1,0,0.1,0
		c0.3,0,0.4-0.1,0.7-0.1c0.3,0,0.5,0,0.8-0.1s0.4,0,0.7,0c0.4-0.1,0.7-0.1,1.1-0.1c0.1,0,0.2-0.1,0.4-0.1c0.3,0.1,0.5,0,0.8,0
		c0.2,0,0.4-0.1,0.7-0.1c0.1,0,0.1,0,0.2,0c0.2,0,0.4,0,0.4-0.1c0.3,0,0.5,0,0.8,0c0.3-0.1,0.4-0.1,0.7-0.1c0.4,0,0.6-0.1,1-0.1
		c0.2,0,0.3-0.1,0.4-0.1c0.2,0,0.4,0,0.6-0.1c0.2-0.1,0.4,0,0.6,0c0.2-0.1,0.4-0.1,0.6-0.1c0.3-0.1,0.4-0.1,0.7-0.1
		c0.2,0,0.4-0.1,0.6-0.2c0.1,0,0.3,0,0.4,0c0.4-0.1,0.7-0.1,1.1-0.1c0.3-0.1,0.5-0.1,0.8-0.2c0,0,0,0,0.1,0c0.2,0,0.4-0.1,0.7-0.1
		c0,0,0.1,0,0.2,0s0.2,0,0.3,0c0.3-0.1,0.4-0.2,0.7-0.3c0.1,0,0.1,0,0.2,0c0.3,0,0.5-0.1,0.8-0.1c0.2-0.1,0.4-0.1,0.5-0.1
		c0.3-0.1,0.6-0.1,1-0.2c0.3,0,0.5-0.1,0.8-0.2c0,0,0,0,0.1,0C23.8,63,24,63,24.1,63c0.2,0,0.3-0.1,0.4-0.1c0.2,0,0.4,0,0.6-0.1
		c0.1-0.1,0.3-0.1,0.4-0.1c0.4-0.1,0.7-0.2,1.1-0.2c0.2,0,0.4,0,0.5-0.1c0.2-0.2,0.4-0.1,0.5-0.1c0.3-0.1,0.5-0.1,0.9-0.2
		c0.4,0,0.7-0.1,1.1-0.2c0.3-0.1,0.6,0,0.9-0.2c0.1,0,0.2,0,0.3,0c0.2,0,0.4-0.1,0.4-0.1c0.1,0,0.2-0.1,0.2-0.1
		c0.3,0,0.5,0.1,0.7-0.1h0.1c0.2,0.1,0.4,0,0.4,0c0.3-0.2,0.5-0.2,0.8-0.2c0.2,0,0.4-0.1,0.6-0.1c0.1,0,0.1,0,0.1,0
		c0.4-0.1,0.7-0.1,1.1-0.1c0.4-0.1,0.6-0.1,1-0.2c0.3,0,0.6-0.1,0.9-0.1c0.2-0.1,0.4-0.1,0.6-0.2h0.1c0.4,0,0.9,0,1.2-0.1
		s0.4-0.1,0.7-0.1c0.2-0.1,0.4-0.1,0.6-0.2c0.1,0,0.1,0,0.2,0c0.3,0,0.5,0,0.8-0.1s0.5,0,0.8-0.1c0.1,0,0.3-0.1,0.4-0.1
		c0.1-0.1,0.2-0.1,0.3-0.1c0.3,0,0.5,0,0.8,0l0.1-0.1c0.1,0,0.2-0.1,0.3-0.1c0.2,0.1,0.4,0,0.7,0s0.5,0,0.7,0
		c0.1-0.1,0.2-0.1,0.2-0.1c0.2-0.2,0.4,0,0.5,0s0.2-0.1,0.2-0.1c0.1,0,0.1-0.1,0.2-0.1c0.1,0,0.3,0,0.4,0c0.4,0,0.6-0.1,0.9-0.1
		c0.2-0.1,0.4,0,0.7,0c0,0,0.1-0.1,0.2-0.1h0.1c0.2,0.1,0.4-0.1,0.5,0c0.2,0,0.4-0.1,0.5-0.2h0.1c0.2,0,0.4,0,0.6,0c0,0,0,0,0.1,0
		c0,0,0.1-0.1,0.1,0c0.2,0.1,0.2,0,0.2-0.1c0.2,0,0.4-0.1,0.5-0.1s0.2,0,0.4,0.1c-0.1,0-0.2,0-0.3,0.1c0.3,0.1,0.4,0,0.5-0.2
		c0.1,0,0.1,0.1,0.2,0.1c0.1,0,0.1-0.1,0.2-0.1c0.2,0,0.3-0.1,0.4-0.2c0.2,0.3,0.5,0.1,0.6,0.1s0.1-0.1,0.2,0c0,0,0.1,0,0.1-0.1
		c0.2-0.1,0.4-0.2,0.6-0.1c0.1,0,0.1,0,0.1,0c0.2,0,0.3,0,0.4,0c0.2,0,0.4-0.1,0.5-0.2c0.3,0.2,0.6,0.1,0.9,0c0,0,0,0-0.1-0.1
		c0.3,0,0.5,0,0.7-0.1c0.3,0,0.4,0,0.7-0.1h0.1c0.1,0,0.2,0,0.4,0.1c0-0.1,0-0.2,0-0.3c0.2,0,0.1,0.2,0.2,0.3c0,0,0.1-0.1,0.2-0.2
		c0,0,0,0,0.1,0.1c0.1-0.2,0.2-0.3,0.4-0.1c0.1,0.1,0.3,0.1,0.4,0.1c0.3,0,0.5,0,0.7-0.1c0.1,0,0.3,0,0.4-0.1c0,0,0,0,0.1,0
		c0.2,0,0.4,0,0.5,0c0.2,0,0.3,0,0.3-0.2c0.2,0,0.3,0,0.4,0.1c0-0.1,0.1-0.2,0.1-0.2s0,0,0.1,0c-0.1,0-0.1,0.1-0.1,0.1s0,0,0,0.1
		c0.2-0.1,0.3-0.2,0.3-0.3c0.1,0,0.1,0,0.1,0c0,0.1,0,0.1-0.1,0.2c0.4,0,0.6,0.1,0.9-0.2c0.2,0.1,0.4,0.2,0.5,0h0.1
		c0.2,0,0.4,0,0.5-0.2h0.1c0.2,0.2,0.4,0.2,0.5,0c0.2,0.1,0.4,0.1,0.5,0c0.2-0.1,0.3-0.1,0.4-0.1c0.2,0,0.4,0,0.7-0.1
		c0.1,0,0.3,0,0.4,0c0.2,0,0.4-0.1,0.6-0.1c0.1,0,0.2-0.1,0.3-0.2c0,0,0.2,0,0.4,0c0,0.1,0,0.1,0,0.2c0.1,0,0.1-0.1,0.2-0.1
		c0.1,0.1,0.3,0,0.4,0c0,0,0,0,0.1,0c0,0,0,0.1,0.1,0.1c0.1-0.1,0.2-0.1,0.3-0.1c0.3-0.1,0.4-0.3,0.6-0.2c0.1,0,0.1-0.1,0.2-0.2
		c0.3,0,0.5,0,0.9,0l-0.1,0.1c0.1,0,0.3,0,0.4,0s0.1-0.1,0.2-0.1s0.2,0,0.3,0.1c0.1-0.1,0.1-0.2,0.2-0.2c0.2,0,0.5-0.1,0.7,0.1
		c0-0.1,0-0.1,0-0.2c0.1,0,0.3-0.1,0.3-0.1c0.2,0.1,0.4,0,0.4,0c0.2,0,0.4,0,0.5-0.1c0.2-0.1,0.4-0.1,0.6-0.1
		c0.2-0.1,0.3-0.1,0.4-0.2h0.1c0.2,0.2,0.2,0.2,0.4,0.1c0.1,0,0.2,0,0.3,0c0.1-0.1,0.2-0.1,0.4,0c0,0,0.1,0,0.2,0
		c0.1-0.1,0.2-0.1,0.4-0.2c-0.1,0.3,0.2,0.2,0.3,0.2v-0.1c0.2,0,0.3,0,0.4,0s0.1,0,0.2,0c0.1-0.2,0.2-0.2,0.3-0.2c0.2,0,0.4,0,0.4,0
		c0.3-0.1,0.5-0.1,0.8-0.1c0.3-0.1,0.6-0.1,0.9-0.2c0.2,0,0.3,0,0.4,0c0.2,0,0.4,0,0.5,0c0,0,0-0.1,0,0c0.1,0.1,0.3,0,0.4-0.1
		c0.3,0,0.5-0.1,0.8-0.1H82c0.2,0.1,0.2,0.1,0.4-0.1c0.1,0.2,0.3,0.2,0.5-0.1c0.2,0.2,0.5,0.1,0.6,0c0.1,0,0.1-0.1,0.1-0.1
		c0.4,0,0.7,0,1-0.1c0.4,0,0.6,0,1,0c0,0,0.1,0,0.2,0.1c-0.1,0-0.1,0-0.1,0c0.4-0.1,0.6-0.2,1-0.3c0.3,0,0.4,0,0.7,0
		c0.4,0,0.7-0.1,1.1-0.1c0.2-0.1,0.4-0.1,0.7-0.1c0.1,0,0.2-0.1,0.3-0.1h0.1c0.2,0.1,0.4,0,0.5,0c0.4,0,0.7,0,1.1,0s0.8-0.1,1.2-0.1
		c0.3,0,0.6,0,0.9-0.1c0.2,0,0.4,0,0.5,0c0.2,0,0.4,0,0.6,0C95.1,51,96,51,96.9,51c0.4,0,0.6-0.1,1-0.1c0.1,0,0.1,0,0.2-0.1
		c0.2-0.1,0.4-0.1,0.5,0.1c0.1,0.2,0.2,0.2,0.3,0.1c0.2,0,0.4-0.1,0.5-0.1c0.2,0,0.4-0.1,0.6-0.1c0,0.1-0.1,0.1-0.1,0.2
		c0.1,0.1,0.2,0.1,0.3,0.1c-0.2,0-0.4,0-0.6,0s-0.4,0-0.5,0.1s-0.4,0.1-0.4,0.1c-0.2,0-0.4-0.1-0.4,0.1c-0.4,0-0.7,0-1.1,0.1
		c-0.2,0-0.3-0.1-0.5-0.1c-0.1,0-0.1,0-0.2,0s-0.3,0-0.4,0.1c-0.2,0-0.3,0-0.4,0s-0.3,0-0.4,0s-0.1,0-0.2,0c-0.4,0-0.6,0-1,0
		c-0.2,0-0.3,0.1-0.3,0.2c0.1,0.1,0.2,0.1,0.2,0.2c-0.2,0.1-0.4,0.2-0.5,0.3c-0.2,0-0.1,0.1,0,0.2c-0.1,0-0.2,0.1-0.3,0.1
		c-0.1-0.1-0.1-0.2-0.2-0.3c0.1,0,0.1-0.1,0.1-0.1s0.1-0.1,0-0.1c-0.3,0-0.4,0.1-0.7,0.1c-0.2,0-0.4,0-0.4,0c-0.3,0-0.4,0.1-0.6,0.2
		c-0.1,0-0.1,0-0.1,0c0.1,0.2,0.3,0.2,0.4,0.2c0.2-0.1,0.3-0.1,0.4-0.1s0.2,0,0.3,0c0.4,0.1,0.6,0.1,0.9,0.1c-0.1,0-0.1,0-0.2,0
		c-0.3,0-0.6,0-1,0c-0.2,0-0.4,0-0.7,0.1c-0.1,0-0.2-0.1-0.3-0.1h-0.2c-0.1,0.2-0.2,0.1-0.4,0.1c-0.1,0.1-0.2,0.1-0.3,0.1h-0.1
		c-0.3-0.1-0.4,0-0.7,0.1c-0.1,0-0.1-0.1-0.1-0.1c0.1,0,0.1-0.1,0.2-0.1c0.1-0.1,0.2,0,0.3-0.1c-0.1,0-0.1-0.1-0.2-0.1
		c-0.4,0-0.7,0.1-1.2,0.1c0,0-0.1,0.1-0.1,0c-0.2-0.1-0.3,0.1-0.4,0.2c0.4,0,0.6,0,0.9,0v0.1c-0.1,0-0.2,0-0.4,0c-0.1,0-0.2,0-0.3,0
		c-0.2,0.1-0.4,0.1-0.5,0.1c0-0.3-0.1-0.3-0.5-0.2c0.2,0.1,0.4,0.1,0.5,0.2c-0.1,0-0.2,0-0.3,0.1c-0.1,0-0.2-0.1-0.3-0.1
		c0,0.2,0,0.2-0.1,0.1c-0.2,0-0.3-0.1-0.5-0.1c-0.1,0-0.2,0.1-0.2,0.2c0,0.2-0.2,0.2-0.3,0.2c-0.3,0.1-0.5,0.1-0.8,0.1
		c0,0-0.1,0-0.2,0c0,0.1-0.4,0.1-0.4,0v-0.1c0,0,0,0,0.1,0s0.1,0,0.2,0c0,0,0.1,0,0.1-0.1l-0.1-0.1h-0.1c-0.2,0-0.4,0-0.4,0.1
		c-0.1,0-0.1,0.1-0.2,0.2c0.1,0,0.2,0,0.3,0c-0.1,0-0.2,0.2-0.3,0.1c-0.2,0-0.4,0-0.4,0.1c-0.2,0.1-0.4,0.1-0.5,0h-0.1
		c-0.2,0.2-0.4,0.1-0.6,0.1c-0.2,0.1-0.4,0-0.6,0c0,0.1,0,0.1,0,0.2c-0.4,0-0.9,0.1-1.2,0.1h-0.1c-0.1,0.1-0.2,0.1-0.3,0.2
		c0.1,0,0.2,0,0.3,0c0.4,0,0.8-0.1,1.2-0.1c0.3,0,0.5-0.1,0.7-0.2c0,0.1,0,0.2,0,0.2c-0.1,0-0.2-0.1-0.3,0.1c0,0-0.2,0-0.3,0.1v-0.1
		c-0.1,0.1-0.1,0.2-0.2,0.3c-0.1,0.2-0.3,0.2-0.4,0.1c-0.1-0.1-0.2-0.1-0.3,0h-0.1c-0.1,0-0.3,0-0.4,0.2c-0.4,0-0.6,0-0.9,0.1
		c-0.1,0-0.1,0-0.1,0c-0.1-0.1-0.2-0.3-0.3-0.1c0,0.2-0.1,0.2-0.2,0.3c0,0,0-0.1-0.1-0.1c-0.1,0.2-0.3,0.1-0.4,0.1s-0.2,0-0.2,0
		c-0.1,0.2-0.2,0.3-0.3,0.1c-0.2,0.2-0.3,0-0.5-0.1c-0.1,0-0.2,0.1-0.2,0.1c-0.2,0.1-0.2,0.1-0.2,0C77,55.1,77,55,76.9,55
		c0-0.1,0-0.1,0-0.2c0.2,0,0.3-0.1,0.5-0.2c-0.1,0-0.2-0.1-0.2-0.1c-0.3,0-0.5,0-0.8,0.1c-0.1,0-0.2,0-0.2,0
		c-0.1,0.1-0.2,0.1-0.4,0.1c0,0.1,0,0.1,0,0.2c-0.1-0.1-0.1-0.2-0.2-0.3c-0.1,0.1-0.2,0.2-0.3,0.1c-0.1,0-0.2,0.2-0.2,0.5H75
		c-0.2-0.1-0.4,0-0.4,0.1v0.1c-0.1,0.1-0.1,0.2-0.3,0.1c0,0,0,0-0.1,0s-0.2,0-0.2,0c-0.2,0.1-0.4,0.1-0.5,0.2
		c-0.1,0-0.2-0.1-0.3,0.1c0,0-0.2,0-0.4,0c-0.1,0.1-0.1,0.1-0.3,0c-0.1-0.1-0.1-0.1-0.2,0.1c-0.1,0-0.1,0.1-0.3,0.1
		c0-0.1-0.2,0-0.3,0c0,0-0.1,0-0.2,0c-0.2-0.1-0.3,0-0.3,0.2c0.3-0.1,0.4,0,0.6,0.2c0.2-0.2,1.1-0.3,1.2-0.3c0,0,0-0.1,0-0.2
		c0.1,0,0.1,0,0.1,0c0,0.1,0,0.2,0,0.3c0.1-0.1,0.1-0.1,0.2-0.1c0,0,0,0.1-0.1,0.1c0.1,0,0.2,0,0.2,0c0.1-0.2,0.3-0.1,0.4-0.1
		c0.3,0,0.4,0,0.6,0c0.1,0,0.1,0,0.1,0c0.4-0.1,0.6-0.1,1-0.1s0.9,0,1.2-0.1c0.3,0,0.4,0,0.5,0.1c0.1,0,0.2,0,0.3,0
		c0-0.1,0-0.1,0-0.2c0,0,0.1,0,0.2,0c0.1-0.1,0.3-0.1,0.4-0.1c0.3,0.1,0.4-0.2,0.6-0.1c0.1,0,0.2-0.2,0.3,0c0.1,0.1,0.2,0.1,0.3,0.2
		c0,0,0.1-0.1,0.1,0c0.1,0,0.3,0,0.4,0s0.2,0,0.3,0.1c-0.1,0-0.1,0-0.2,0.1c-0.1-0.1-0.1-0.1-0.2,0c-0.1,0-0.2,0-0.3,0.1
		c-0.1,0-0.2,0-0.3,0c0,0.1-0.1,0.1-0.1,0.1c-0.1-0.2-0.3,0-0.4,0s-0.2,0.1-0.2,0.2l0.2,0.1c0-0.1,0.1-0.1,0.2,0c0,0,0,0,0.1,0
		c0.1-0.1,0.2-0.1,0.3-0.1c-0.1,0.2-0.2,0.3-0.3,0.4v0.1H79c0.1,0,0.3,0,0.4-0.1c0.2,0,0.4,0,0.6,0c0.1,0,0.2,0,0.3,0l0.1-0.1
		c0.1,0.1,0.3,0.1,0.4,0.1c0.1-0.2,0.2-0.2,0.4-0.1c0,0,0.1,0,0.2,0c0.2,0,0.4,0,0.5-0.1c0.2,0,0.4,0,0.7,0c0,0,0,0,0.1,0
		c0.1,0.1,0.2,0,0.3,0c0.2-0.1,0.4,0,0.4-0.2c0.3,0.1,0.4,0,0.6-0.1c0.2,0.2,0.3,0,0.4,0c0,0,0-0.1,0.1-0.1C84.9,56,85,56,85.2,56
		c0.1,0,0.2,0,0.3-0.1h0.1c0.2,0,0.3,0,0.4,0c0.3,0,0.5,0.1,0.8,0c0.2,0,0.4,0.1,0.5,0l0.1,0.1c0.1,0,0.2,0,0.3,0
		c-0.1,0.1-0.1,0.1-0.2,0.2c0.2,0.1,0.3,0.1,0.4,0.1c0.1-0.1,0.3-0.1,0.3-0.3c0.1,0,0.2,0.1,0.3,0.1c0,0,0,0,0.1,0
		c0.2,0,0.4-0.1,0.6,0.1c0.4-0.3,0.8,0.1,1.3,0c0.2-0.1,0.3,0,0.4-0.1c0.1,0,0.2,0,0.2,0c0.1,0.2,0.2,0.1,0.3,0.1
		c0.3,0,0.6,0,0.9-0.1c0.2,0,0.4-0.1,0.4-0.1c0.2-0.1,0.3-0.1,0.4-0.2c0.1,0,0.3,0,0.4-0.1c-0.1-0.2-0.3-0.2-0.4-0.2
		c-0.2,0-0.4,0.1-0.5,0.1c0,0,0,0-0.1,0c-0.2,0-0.4,0-0.6,0.1c-0.3,0.1-0.5,0.1-0.7,0.1c0,0,0.1-0.1,0-0.2c-0.1,0-0.1-0.1-0.1-0.1
		c0.1,0,0.1-0.1,0.1-0.1c0.2,0,0.3,0,0.4,0c0.4,0,0.9,0,1.3-0.1c0.2,0,0.3,0,0.4,0c0.3,0.1,0.4,0,0.7-0.1c0.2,0,0.3,0,0.4,0
		c0.1,0.1,0.3,0.2,0.4,0.1c0.4-0.1,0.7-0.2,1.1-0.2c0.1,0,0.2-0.1,0.3-0.1c0.2,0,0.4-0.1,0.5,0c0.2,0.1,0.4,0,0.5-0.1s0.1,0,0.2,0
		c-0.2,0.1-0.4,0.3-0.7,0.4c-0.4-0.1-0.7,0.2-1.2,0.2c0,0-0.1,0-0.1,0.1c-0.1,0-0.1,0-0.1,0c-0.3,0.1-0.4,0.2-0.6,0.2
		c-0.1,0.1-0.2,0.1-0.3,0.2c0,0.1,0.1,0.1,0.1,0.1c0.3,0.1,0.5,0.1,0.7,0.1c0.4,0,0.6,0,1-0.1h0.1c0.1-0.3,0.3-0.2,0.4-0.1
		c0.1,0,0.2,0.1,0.4,0.1c0.1,0,0.2,0,0.3,0c0.2,0,0.4-0.1,0.5-0.1c0.4-0.1,0.9-0.1,1.3-0.1c0.3,0,0.6,0.1,0.9,0.1
		c0.2,0,0.4-0.1,0.6-0.2c0.2,0,0.4,0,0.5,0c0,0,0,0,0.1,0c0.2,0.3,0.4,0.3,0.5,0.2c0.3,0,0.5,0,0.7,0s0.3,0.1,0.4,0
		c0-0.1,0.1-0.1,0.1-0.1c0.2,0,0.3-0.1,0.4-0.1c0.2,0,0.3,0.1,0.5,0.1c0.1,0.1,0.2,0.1,0.4,0c0,0,0.1-0.1,0.2-0.1s0.2,0,0.2,0
		c0.1-0.1,0.1-0.1,0.2-0.1c0.2,0.1,0.4,0.1,0.5,0.1c0.3,0.1,0.5,0.1,0.9,0.1c0.1,0,0.3-0.1,0.4-0.1s0.1,0,0.2,0s0.3,0,0.4-0.1
		s0.2-0.2,0.3-0.3c0,0,0,0,0.1,0s0.2,0,0.3,0c0.1,0,0.2-0.1,0.2-0.2c0,0,0.1,0,0.1-0.1h0.1c-0.3-0.1-0.5-0.2-0.7-0.1
		c0.3-0.3,0.4-0.4,0.8-0.3c0.3,0.1,0.5,0.1,0.8,0.1c0.1-0.3,0.4-0.1,0.5-0.2c0.1,0,0.2,0,0.3-0.1c0,0,0,0.1,0.1,0.1
		c-0.1,0-0.1,0-0.1,0c0.1,0.1,0.3,0.1,0.4,0.1s0.1-0.1,0.2-0.1c0-0.1,0.1-0.1,0.1-0.1s0.1,0,0.1,0.2c0.3-0.1,0.5-0.2,0.8-0.2
		c0.1-0.1,0.2,0,0.2,0c0.1,0,0.2-0.1,0.3-0.2h0.1c0.2,0.2,0.4,0,0.4-0.1c0.1,0,0.1,0,0.1-0.1c0,0.1,0,0.2,0,0.3c0.2,0,0.4,0,0.5,0
		c0,0.1,0.1,0.1,0.1,0c0.1-0.1,0.2,0,0.3,0.1h0.1c0.3,0.1,0.5,0.2,0.6,0.2c0.2,0,0.4,0,0.5,0c0.2,0,0.3,0,0.4,0s0.3,0,0.4,0
		c0.2,0,0.3-0.2,0.4-0.3c0.1,0,0.2,0,0.3,0c0.2,0,0.4,0,0.5,0s0.1,0,0.2,0c-0.1,0-0.1,0.2-0.2,0l-0.1,0.1c-0.1,0-0.2,0.2-0.4,0
		c0,0-0.1,0.1-0.1,0.2c0.3,0,0.6,0.2,1,0c0-0.1-0.1-0.1-0.2-0.2h0.1c0.1,0,0.2,0.1,0.3,0.1c0,0.1,0,0.1,0,0.2c0.1,0,0.3,0,0.4,0
		s0.2,0,0.3-0.1c0,0,0.1,0,0.2,0.1c0.2,0,0.4,0,0.6,0c0.1,0,0.2,0,0.3,0c0.1-0.2,0.1-0.1,0.2-0.1c0.2,0,0.4,0,0.4-0.1
		c0.1,0,0.1,0,0.1,0c0.2,0,0.4,0,0.5,0.1c0.1,0,0.3-0.1,0.4-0.1c0.1,0.1,0.2-0.1,0.3,0.1c0.1,0,0.1,0,0.2,0c0.2,0,0.4,0,0.5,0.1
		c0.2,0,0.3,0,0.4-0.1c0.2,0,0.3-0.1,0.4-0.1s0.1-0.1,0.2-0.1c0.2,0,0.4-0.1,0.5-0.1v-0.1c0.1,0,0.2-0.1,0.3-0.1
		c0.1,0.1,0.2,0.2,0.3,0.3c0.1,0.2,0.3,0.2,0.5,0.2s0.4-0.1,0.6,0c0.3,0.1,0.4,0,0.7,0c0.1,0.1,0.2,0,0.3,0c0.2,0,0.4,0,0.5,0
		c-0.1,0.2-0.1,0.3-0.3,0.1c-0.1,0-0.2,0-0.3,0c-0.1,0.1-0.3,0.1-0.4,0.2c0.1,0,0.2,0,0.4,0.1c0.3,0,0.5,0,0.9,0c0,0,0,0,0.1-0.1
		c-0.2,0-0.2,0-0.4,0c0.4-0.1,0.9-0.3,1.2-0.1c-0.2,0-0.3,0-0.4,0c0.1,0.2-0.1,0.2-0.2,0.2c0.1,0.1,0.3,0.1,0.4,0c0.1,0,0.3,0,0.4,0
		c0.2,0,0.4,0,0.5,0.1c0.2,0,0.4,0,0.6,0c0,0,0.1,0,0.2,0c0.2,0,0.3,0,0.4,0c0.1,0,0.1,0,0.1,0c0.3-0.1,0.4,0,0.6,0.1
		c0,0,0.1,0,0.2,0c0-0.1,0-0.1,0-0.3c0.1,0.1,0.2,0.1,0.4,0.1c0.2,0.1,0.4,0.1,0.6,0c0-0.1,0.1-0.1,0.1-0.1c0.1,0.1,0.2,0.1,0.2,0.1
		c0.1,0,0.2,0,0.3,0s0.3-0.1,0.4-0.1c0,0,0.1,0,0.2,0c0.3,0,0.6,0.1,0.9,0.1c0.1,0,0.1-0.1,0.2-0.1c0.1-0.1,0.3,0,0.4,0.1
		c0.1,0.1,0.3,0.1,0.3,0.1c0.3-0.1,0.5,0.1,0.7,0.1c0.5,0.1,0.8,0.2,1.2,0c0.1-0.1,0.2,0,0.4,0c0.5,0.2,0.9,0.4,1.4,0.3
		c0.2,0,0.4,0,0.5,0.1c0.1,0,0.1,0,0.1,0.1c0.4,0,0.8,0,1.3-0.1c0.1,0.1,0.2,0.1,0.3,0.1c0.3,0,0.5,0,0.8,0s0.5,0,0.8-0.1
		c0.2-0.1,0.4,0,0.5,0.1c0.5,0.2,0.8,0.1,1.3,0c0.2,0,0.4,0,0.6,0c0,0.1,0,0.1,0,0.2c0.2,0,0.4,0,0.5,0c0.2,0,0.4,0,0.5-0.1
		c0.1,0,0.2,0,0.2,0c0.4,0.1,0.7,0.1,1.1,0.1c0.2,0,0.4,0,0.5-0.1c-0.2,0.3-0.4,0.1-0.5,0.4c0.2,0.1,0.4,0.1,0.6,0
		c0.1-0.1,0.2,0,0.3,0c0.3-0.1,0.5-0.1,0.8-0.1c0.4-0.1,1,0,1.4,0c0.1,0,0.2,0,0.3,0c0.2,0,0.4,0,0.5,0.1l0.1,0.1
		c0.4,0.2,0.8,0.1,1.2,0.1c0.2,0,0.4,0,0.6,0c0,0,0,0,0,0.1c-0.1,0-0.2,0-0.3,0.1c0.1,0,0.1,0,0.1,0c0.1,0,0.2,0,0.2,0
		c0.2,0,0.4,0,0.5,0c0.3,0,0.5-0.1,0.8-0.1c0.4,0,0.6,0.1,1,0c0.2,0,0.4,0.1,0.5,0.2c0.3,0,0.5,0.1,0.6,0.1c0.2,0.1,0.4,0,0.6,0
		c0.2,0,0.3,0.1,0.4,0.1c0.1,0,0.2,0.1,0.3,0.1c0.3,0,0.5,0,0.7,0c0.1,0,0.3,0,0.4,0.1c0.1,0.1,0.3,0,0.4,0c0.3-0.2,0.5-0.1,0.8,0
		c0.1,0,0.2,0,0.3,0c0.2,0.1,0.4,0.1,0.5,0c0.2,0,0.3,0,0.4-0.1c0.1,0,0.3,0,0.4,0c0.2,0.1,0.4,0.1,0.5,0c-0.3-0.3-0.6-0.4-0.9-0.3
		c0-0.2,0.2-0.3,0.3-0.2s0.3,0,0.4,0c0.3,0.1,0.5,0.1,0.7,0.1c0.3,0,0.5,0.1,0.8,0.1c-0.1-0.1-0.1-0.1-0.1-0.1
		c0.1-0.1,0.1-0.2,0.3-0.1c0,0,0.1,0,0.2-0.1v-0.1c-0.1-0.2-0.2-0.2-0.3-0.2c-0.2-0.1-0.4-0.2-0.6-0.2c-0.1,0-0.2-0.1-0.3,0.1
		c-0.1,0.1-0.4,0.1-0.5,0.1c0-0.2,0.1-0.2,0.2-0.2c0.1,0,0.2,0,0.3,0c-0.2-0.4-0.8-0.3-1.2,0c0.1,0,0.2,0.1,0.3,0.1s0.3,0.1,0.4,0.1
		v0.1c-0.1,0-0.2,0-0.2,0c-0.3,0-0.5,0-0.9,0.1c-0.2,0.2-0.3,0.1-0.3-0.1c0.2,0,0.4,0,0.5-0.1c0-0.1,0-0.2-0.1-0.3
		c0,0,0.1-0.1,0.2-0.1c-0.2-0.1-0.3-0.2-0.5-0.2c-0.2,0.1-0.4,0-0.5,0.1c-0.1,0-0.2,0-0.2,0c-0.2,0.2-0.4,0.2-0.6,0.3
		c-0.2,0-0.3,0.1-0.4,0.1c-0.2,0.1-0.4,0.1-0.5,0.1s-0.2,0-0.3,0s-0.2,0-0.3-0.1c-0.1,0-0.2-0.1-0.3-0.1c0-0.1,0-0.1,0-0.1
		s0-0.1,0.1-0.1c0.1,0.1,0.2,0.1,0.3,0.1c0.3,0.1,0.5,0.1,0.9,0c-0.1-0.1-0.1-0.2-0.2-0.2c0.4,0,0.8,0.1,1.2-0.1
		c-0.1,0-0.1-0.1-0.2-0.1c-0.3,0-0.5-0.1-0.8-0.1c0,0-0.1-0.1-0.2-0.1c0.2,0,0.3,0,0.4,0c0.1,0,0.2,0,0.3-0.1
		c-0.1,0-0.1-0.1-0.2-0.1c0-0.1-0.1-0.1-0.1-0.1c0.3,0.1,0.4,0,0.6-0.1c0.1,0.3,0.4,0.2,0.5,0.2c0,0,0.1,0,0.2,0
		c0.3,0,0.5,0.1,0.9,0.1c0,0,0.1,0,0.2,0v-0.1c0,0-0.1-0.1-0.2-0.1c-0.3-0.1-0.6,0-0.8-0.1c-0.2-0.2-0.4-0.2-0.5-0.2
		c-0.3-0.1-0.5-0.1-0.8-0.1s-0.5,0-0.7-0.1c-0.3,0-0.5-0.1-0.6-0.1s-0.1,0-0.2,0c0-0.1-0.1-0.1-0.1-0.1c-0.3,0-0.4,0-0.7,0
		c-0.3-0.1-0.5-0.1-0.8-0.1c0-0.1,0.1-0.1,0.1-0.2c-0.1,0-0.2-0.1-0.3-0.1c-0.3,0-0.6-0.1-0.9-0.1c-0.1-0.1-0.2-0.1-0.3-0.1
		c-0.3,0-0.5-0.1-0.8-0.1c-0.4,0-0.7-0.1-1.1,0c-0.2,0-0.4,0-0.5-0.2c0,0-0.1,0-0.2,0c-0.2,0-0.4,0-0.5,0c-0.3,0-0.6-0.1-0.9-0.1
		c-0.1,0-0.2,0-0.3,0c-0.2,0-0.3,0-0.5-0.1c-0.1,0-0.1,0-0.2,0c-0.3,0.2-0.5,0.1-0.9,0c0,0-0.1-0.1-0.2-0.1c-0.3,0-0.6,0-0.9,0
		c-0.2,0.1-0.4,0.1-0.4,0.2c-0.2,0.1-0.4,0-0.6-0.1c-0.1,0-0.1,0-0.2-0.1l-0.1-0.1c-0.4,0-0.7-0.1-1.1,0c0,0.1,0.1,0.1,0.2,0.2
		c-0.2,0-0.3,0-0.4,0c-0.2,0-0.3,0-0.4,0c-0.4-0.1-0.7-0.1-1.2-0.1c0.2,0,0.4,0,0.4,0c0-0.3-0.2-0.1-0.3-0.2c-0.1,0-0.2,0-0.2-0.1
		c-0.1,0-0.1,0-0.1,0c-0.3,0-0.5,0-0.8,0.1c0,0,0,0-0.1,0c0.1,0.1,0.1,0.1,0.2,0.1c0.2,0,0.4,0,0.5,0c0,0,0,0,0.1,0.1
		c-0.1,0-0.1,0-0.1,0c-0.7,0-1.3,0.1-2,0.1c-0.5-0.1-0.8,0-1.3-0.2c0.3-0.2,0.5-0.1,0.7,0c0.4,0,0.6,0.1,0.9,0.1
		c-0.4-0.3-2.2-0.3-2.7-0.1c-0.1-0.2-0.3-0.2-0.4-0.2c-0.2,0-0.4,0-0.6,0c-0.2,0-0.4,0-0.6,0.1c-0.4,0-0.7,0.2-1.1,0
		c-0.2,0-0.4,0-0.5,0s-0.2,0-0.2-0.1c0.4,0,0.7,0,1.2,0c-0.1-0.3-0.2-0.3-0.4-0.2c0,0,0,0.1-0.1,0.1c-0.2-0.1-0.4-0.1-0.6-0.1
		c-0.2,0-0.2,0.1-0.1,0.2c-0.2,0-0.4,0-0.5,0c0.1,0,0.2,0,0.4,0c0-0.1,0-0.1,0-0.1c-0.2,0-0.3-0.1-0.4-0.1c-0.1,0-0.2,0-0.3,0
		s-0.1,0.1-0.2,0.1c0.1,0,0.1,0.1,0.2,0.1h0.1c-0.2,0-0.4,0-0.6,0c-0.2,0-0.3-0.1-0.5-0.1c-0.1,0-0.1,0-0.2,0
		c-0.1,0-0.1,0.1-0.2,0.1c-0.5-0.1-0.9-0.1-1.3,0c-0.3,0-0.5-0.1-0.6-0.1c-0.2,0-0.4,0.1-0.5,0.1c-0.4,0-0.6-0.1-1,0
		c-0.2,0-0.3-0.1-0.4-0.1c-0.1,0-0.1,0-0.1,0c-0.1,0.1-0.2,0.1-0.4,0.1c0-0.2-0.1-0.2-0.2-0.2c-0.2,0-0.3,0-0.4,0s-0.1,0-0.2-0.1
		c-0.1,0.1-0.2,0.1-0.3,0.1c-0.2,0-0.3,0-0.4,0c0,0.1-0.1,0-0.2,0h-0.1c-0.1,0.1-0.2,0.1-0.3,0c0.1-0.1,0.2-0.1,0.3-0.1v-0.1v-0.1
		c-0.2,0-0.3,0-0.4,0.1c0.1,0.1,0.2,0.1,0.2,0.2c-0.1-0.1-0.3-0.1-0.4-0.1c0-0.1,0.2-0.2,0-0.3c-0.1,0-0.2,0-0.3,0l-0.1,0.1l0.1,0.1
		c0.1,0,0.2,0.1,0.3,0.1c-0.1,0.1-0.2,0-0.3,0.1h-0.1c-0.1,0.1-0.2-0.1-0.4-0.1c-0.1,0-0.2,0-0.4,0c0,0.1,0,0.1-0.1,0.1
		c-0.1-0.1-0.3-0.1-0.4-0.1v-0.1c0,0,0,0,0-0.1c0.1,0.1,0.1,0,0.2,0.1c0.1,0,0.1,0,0.1-0.1v-0.1c-0.1,0-0.2,0-0.3,0
		c-0.1,0-0.3-0.1-0.3,0.1c0,0.1-0.1,0.1-0.1,0.1c-0.2,0-0.3,0.1-0.4,0.1c-0.2,0-0.4,0-0.5-0.1c0,0,0,0,0.1,0
		c-0.1-0.1-0.2-0.2-0.3-0.3c0,0-0.1,0-0.3,0c0.1,0.1,0.2,0.1,0.2,0.2l-0.1,0.1c-0.1,0-0.1-0.1-0.2-0.2v0.1c-0.1,0-0.1,0-0.1,0
		c0-0.2-0.1-0.3-0.3-0.2c-0.1,0-0.1,0-0.2,0.1c-0.1-0.1-0.3-0.3-0.5-0.3c0,0-0.1,0.1-0.2,0.1c0.1,0.1,0.1,0.1,0.2,0.1
		c-0.1,0.1-0.1,0.1-0.1,0.1c0.1,0,0.3,0,0.4,0s0.2,0,0.2,0.1c0.1,0,0.1,0.1,0.1,0.2c-0.1,0-0.1-0.1-0.2-0.1
		c-0.2,0.1-0.4,0.2-0.6,0.1c-0.1,0-0.3,0.1-0.4-0.1c0,0-0.1,0.1-0.2,0.1c0-0.1,0-0.1,0.1-0.2c0-0.2-0.1-0.2-0.5-0.2
		c0.1,0.1,0.2,0.2,0.3,0.3c-0.1,0.1-0.1,0.1-0.3,0c-0.1,0-0.2,0-0.3-0.1c-0.1,0-0.1,0-0.1,0c-0.2,0.1-0.4,0.1-0.5,0.2
		c0,0,0,0.1-0.1,0.2c0.2,0,0.3,0,0.4,0c-0.2,0.1-0.4,0.1-0.4,0.2c-0.1-0.1-0.2-0.2-0.4-0.3c0.1,0,0.1,0,0.2,0v-0.1
		c-0.1,0-0.2-0.1-0.4-0.1c0,0.1-0.1,0.3-0.1,0.4c-0.1,0-0.2-0.1-0.3-0.1v0.1c-0.1-0.1-0.1-0.1-0.1-0.2c0.1,0,0.2,0,0.3,0v-0.1
		c-0.1,0-0.2,0-0.3,0c-0.1-0.1-0.1-0.1-0.1-0.2c-0.1,0-0.1,0-0.1,0.1c-0.1,0-0.2,0-0.2,0c-0.2,0-0.4-0.1-0.5-0.1
		c-0.1,0.1-0.1,0.1-0.2,0c0-0.1,0-0.3,0.1-0.4c-0.1,0-0.1,0-0.1,0s-0.1,0.1-0.1,0.2c0,0-0.1,0-0.2,0c0,0.1,0,0.1,0,0.2
		c-0.2,0.1-0.4-0.1-0.4,0.1c-0.2-0.1-0.3-0.1-0.5-0.1c-0.1,0-0.1,0-0.2,0c0,0,0-0.1,0.1-0.2c-0.3-0.1-0.6,0-0.8-0.2
		c-0.1,0-0.1,0-0.2,0c-0.1,0.1-0.1,0.3-0.2,0.4c0-0.1-0.1-0.2-0.1-0.3c-0.1,0-0.2,0-0.3,0.1c0,0-0.2,0-0.3,0c-0.1,0-0.2,0-0.3-0.1
		v0.1l-0.1,0.1c-0.3,0.1-0.4,0.2-0.7,0.2c-0.2,0-0.3-0.1-0.5-0.1c0-0.1-0.1-0.1-0.1-0.2c0,0,0,0,0.1-0.1c0.1,0,0.2,0.1,0.3,0.1
		c0-0.1,0-0.1,0-0.2c-0.2,0.1-0.2-0.1-0.3-0.1c0.1-0.1,0.1-0.1,0.2-0.1c0-0.1-0.1-0.1-0.1-0.1c-0.1,0.1-0.2,0.2-0.3,0.3h-0.1
		c0,0.1,0,0.2,0,0.2c-0.1-0.1-0.3-0.2-0.5-0.1c0.1-0.2,0-0.3-0.2-0.3c0-0.2-0.1-0.2-0.4-0.1c0.2,0,0.3,0.1,0.4,0.1
		c0,0.1,0,0.1-0.1,0.2c0.1,0,0.1,0.1,0.2,0.1c-0.1,0-0.2,0.1-0.2,0.1c-0.2,0-0.3,0-0.4,0c-0.1-0.1-0.3-0.1-0.4-0.1s-0.2,0-0.3,0
		c0.3-0.1,0.4-0.2,0.5-0.3c-0.1,0-0.2-0.4-0.4-0.1c0-0.1,0-0.1-0.1-0.2c-0.1,0-0.3,0.1-0.4,0.1v0.1c0,0,0.1,0.1,0.2,0.1
		s0.2,0.1,0.1,0.2c0,0,0,0.1,0,0.2c-0.1-0.1-0.2-0.1-0.3-0.1c-0.1-0.1-0.2-0.1-0.2-0.1c-0.1,0.1-0.2,0-0.2,0.2c-0.1,0-0.1,0-0.2,0
		c0-0.3,0-0.3-0.2-0.3c-0.4,0-0.6-0.1-0.9-0.1c-0.1,0-0.1,0-0.2,0c0.2,0.3,0.4,0,0.5,0.1c0,0.1,0,0.1,0,0.2c-0.2,0-0.3,0-0.4,0
		c-0.1-0.1-0.2-0.2-0.3-0.1c0,0.1-0.1,0-0.2,0c0-0.1-0.1-0.2-0.1-0.2c-0.3,0-0.4,0-0.6,0c-0.1,0-0.2,0-0.3-0.1c-0.1,0-0.2,0-0.3,0
		c0.1,0.1,0.1,0.1,0.1,0.2c-0.2,0-0.4,0-0.5,0c0-0.1,0-0.1,0-0.1c0.1,0,0.1-0.1,0.2-0.1c-0.2-0.1-0.4,0-0.6,0.1
		c0,0.1-0.1,0.1-0.2,0.1c-0.1-0.1-0.2-0.1-0.4-0.1c0.1,0,0.1-0.1,0.1-0.1c-0.2,0-0.4-0.1-0.5,0.1l-0.2-0.1c-0.1,0-0.2,0-0.3,0
		c0-0.1-0.1-0.3,0.1-0.4c-0.1,0-0.1-0.1-0.2-0.2c0.1,0,0.1,0,0.2,0c0.2,0,0.4,0,0.5,0s0.1,0,0.2,0c0.1-0.1,0.2-0.1,0.2,0
		c0.2,0,0.4,0.1,0.5-0.1c0.1,0,0.1,0,0.1,0c0.4,0,0.6,0,0.9,0c0.2,0,0.4,0,0.5,0.1s0.1,0,0.3,0c-0.1,0.1-0.2,0.1-0.2,0.2
		c0.2,0,0.3-0.1,0.4-0.1c0,0,0,0,0-0.1c0,0-0.1,0-0.2,0c0.1-0.1,0.2-0.2,0.2-0.1c0.4,0.1,0.6,0,1,0c0.2,0,0.3,0,0.4,0V51
		c0,0.1,0,0.2,0.1,0.1c0.1,0,0.2,0,0.3,0c0-0.1,0-0.1,0-0.1c-0.1,0-0.1,0-0.2,0s-0.1,0-0.2,0c0.2-0.2,0.3-0.2,0.5,0
		c0,0.1,0.1,0,0.1,0c0.1,0,0.2-0.1,0.2-0.1c0.1,0,0.2,0,0.3,0c0.2,0,0.4,0.1,0.5,0.1h0.1c0.1,0,0.1-0.1,0.2,0c0.1,0,0.2,0.1,0.3-0.1
		c0.1,0,0.1,0,0.1,0c0.7,0,1.3-0.1,2-0.1c0.2,0,0.3,0,0.4,0c0.3,0,0.5,0.1,0.7,0.1c0.2-0.1,0.4-0.1,0.6-0.1c0.1,0,0.2,0.1,0.4,0.1
		c0.4,0,0.7,0,1.1,0c0.2,0,0.4,0,0.6,0.1c0.1,0,0.1-0.1,0.1-0.1c0.1,0,0.2,0,0.3,0.1h0.1c0.1-0.1,0.2-0.1,0.3-0.1c0.2,0,0.3,0,0.4,0
		s0.2,0.1,0.2,0.1c0.1,0,0.2-0.1,0.3-0.1c0,0,0,0.1,0.1,0.1c0.2,0,0.4-0.1,0.5,0c0.1,0,0.2,0,0.3,0c0.4,0,0.7,0,1.1,0s0.9,0,1.3,0
		c0.2,0,0.3,0,0.4,0c0.1,0.1,0.2,0.1,0.2,0h0.1c0.2,0,0.3,0,0.4,0c0,0,0.1,0.1,0.2,0.1c-0.1,0-0.2,0.1-0.3,0.1
		c-0.1,0-0.2,0.1-0.2,0.2c0.2,0,0.4-0.1,0.6,0.1c0.1,0,0.1-0.1,0.1-0.2c-0.1-0.1-0.2-0.1-0.3-0.2c0.3-0.1,0.5-0.1,0.9-0.1
		c0.1,0,0.2,0.1,0.3,0.1c0.1,0,0.2,0,0.3,0c0.4,0,1,0,1.4-0.1c0.2,0,0.4,0,0.4,0c0.1,0,0.2,0,0.2-0.1c0.2,0,0.3,0,0.4,0
		c-0.1,0-0.1,0.1-0.2,0.1v0.1c0.3,0,0.4,0,0.7,0c0,0,0,0,0,0.1c-0.1,0-0.2,0-0.4,0c0.1,0.1,0.2,0.1,0.3,0.1c-0.1,0-0.1,0-0.2,0.1
		c0.1,0,0.2,0.1,0.4,0.1c0.1,0,0.1-0.2,0.1-0.4c0.2,0,0.4,0,0.5,0.1c0.1,0,0.1,0,0.1,0c0.3-0.2,0.5,0,0.7,0c0.4,0,0.7,0,1.1,0
		c0.3,0,0.6,0.1,0.9,0.1c0.2,0,0.4-0.1,0.4-0.1c0.5,0.1,0.9,0.1,1.3,0c0.3,0,0.5,0.1,0.8,0.1c-0.1,0.1-0.1,0.1-0.1,0.1
		c0.1,0,0.3,0.1,0.4,0c0.3,0,0.5,0,0.8,0c0.3,0.1,0.5,0.1,0.7,0.1s0.4,0,0.5,0c0.2,0,0.4,0.1,0.5,0.1c0.6,0,1.2,0,1.7,0
		c0.4,0,0.7,0.1,1.1,0c0.1,0.1,0.2,0.1,0.3,0.1c0.7,0,1.4-0.1,2.1-0.1c0.1,0,0.1,0,0.1,0.1c0.3,0.2,0.5,0.1,0.7,0.1c0.5,0,1,0,1.4,0
		s0.7,0.1,1,0c0.5,0.1,1.1,0,1.6,0.1s0.9,0.1,1.4,0.1c0.1,0,0.2,0,0.2,0c0.5,0,1.1,0,1.5,0c0.5,0,1,0,1.5,0.1c0.3,0,0.5,0,0.9,0
		c0.2,0,0.4,0,0.5,0.2c0.1,0,0.2,0,0.3,0c0.5,0.1,0.9,0.1,1.3,0c0,0,0.1,0.1,0.2,0.1c0.1,0,0.3,0,0.5,0.1c0.3,0,0.4,0,0.6,0.1
		c0,0,0.1,0,0.2,0c0.2,0,0.4,0,0.5,0.1c0.1,0,0.2,0,0.3,0s0.2,0,0.3,0.1c0,0.1,0.1,0.1,0.1,0.1c0.1,0,0.2,0,0.3,0c0.3-0.1,0.6,0,1,0
		c0.2,0,0.4,0,0.6,0.1c0.1,0,0.3,0,0.4,0c0.2,0,0.4,0.1,0.6,0.1c0.2,0,0.3,0.1,0.2,0.3c0.1,0,0.1,0,0.2,0c0.4-0.2,0.6,0.1,1,0
		c0.1,0,0.3,0.1,0.4,0.1c0.1,0,0.3,0,0.4,0.1c0.2,0,0.3,0,0.5,0.1c0.4,0.1,0.7,0.1,1.1,0.1c0.4,0.2,0.6,0.1,1,0.1c0.1,0,0.2,0,0.3,0
		c0,0,0.1,0,0.2-0.1c0,0.1,0.1,0.3,0.2,0.1h0.1c0.1,0.1,0.2,0.2,0.4,0.1c0,0,0,0.1,0.1,0.1s0.1,0.1,0.3,0s0.4,0.1,0.5,0.2
		c0,0.2,0.1,0.3,0.3,0.2c0,0,0-0.1,0-0.2c0.2,0,0.3-0.1,0.4-0.1c0.1,0,0.2,0.1,0.3,0.1c0,0,0,0.1-0.1,0.2c0,0,0,0-0.1,0.1
		c0.2,0,0.4,0,0.5,0c0,0,0-0.1,0.2,0c0.1,0.1,0.3,0.2,0.4,0.3c0.1,0,0.1,0.1,0.2,0.1c0.1,0,0.1,0.1,0.2,0c0.1-0.1,0.3,0,0.4,0.1
		c0.1,0,0.1,0,0.2,0.1c0-0.1-0.1-0.2-0.1-0.2s0,0,0.1-0.1c0,0.1,0.1,0.1,0.1,0.2c0.1,0,0.1,0,0.3,0c-0.1,0.1-0.2,0.1-0.2,0.1
		c0,0.1,0,0.1,0,0.1c0.1,0,0.2,0.1,0.3,0.1s0.1,0,0.2,0c0.1,0,0.2,0,0.3,0.1c0.1,0,0.2,0,0.3,0c0.2,0,0.4,0.2,0.5,0.2
		c0.1,0.2,0.3,0.3,0.4,0.4c0.1,0.2,0.1,0.3,0.2,0.4c0.1,0.2,0.1,0.4,0.2,0.5c0,0.1,0,0.2,0,0.2c0,0.2,0,0.3,0,0.4c0,0.1,0,0.2,0,0.3
		c0,0.4,0,0.8,0.1,1.2c-0.2,0.1-0.4,0.1-0.4,0.2c0,0.1,0.1,0.2,0.2,0.3v0.1c-0.2,0-0.2,0.2-0.2,0.3c0,0.3-0.1,0.4-0.3,0.5
		c0.1-0.1,0.1-0.2,0.1-0.3c0,0-0.1,0-0.2-0.1c-0.1,0.1-0.2,0.4-0.4,0.4c0-0.2,0.1-0.3,0.1-0.4c-0.2,0-0.4,0-0.6,0c0,0.1,0,0.1,0,0.2
		c-0.2,0.1-0.4,0.1-0.7,0.2c0.1-0.1,0.1-0.2,0.1-0.3c-0.1,0-0.2,0.1-0.3,0.1c0,0,0-0.1-0.1-0.2c-0.1-0.1-0.1-0.2-0.3-0.1
		s-0.4,0-0.5-0.2c-0.1-0.1-0.2-0.3-0.1-0.4c0-0.1-0.1-0.3-0.3-0.3c-0.1,0-0.2,0-0.3,0s-0.2,0-0.3-0.1s-0.2,0-0.2,0.2
		c-0.2-0.1-0.3-0.1-0.5-0.2c-0.1,0-0.2-0.1-0.3,0c0,0.1-0.1,0.1-0.1,0.1c-0.3-0.1-0.5-0.1-0.6-0.1c0,0,0,0-0.1,0
		c-0.1,0.1-0.3,0.1-0.4,0.2c-0.2,0.1-0.5-0.1-0.5-0.2c-0.1,0-0.2,0-0.3,0.1c0,0,0.1,0,0.1,0.1c0,0,0,0,0,0.1h-0.1
		c-0.2-0.1-0.5-0.1-0.7-0.3c0,0-0.2,0-0.3,0c-0.3-0.1-0.5-0.1-0.7-0.1c-0.1,0-0.2-0.1-0.3-0.1c0,0.1-0.1,0.1-0.2,0.1
		c-0.1,0.1-0.3,0.1-0.4,0.1c0,0.1-0.1,0-0.2,0c-0.4,0.1-0.7-0.1-1.1-0.1c-0.3-0.1-0.5-0.2-0.8,0c0,0.1-0.2,0.1-0.2,0.1
		c-0.1-0.2-0.2-0.1-0.4-0.1c-0.3,0-0.5,0-0.8,0c-0.1,0-0.3,0-0.4,0.1c-0.1,0-0.2,0-0.3-0.1s-0.3-0.1-0.5-0.2c-0.3,0-0.5-0.1-0.8-0.1
		c0,0-0.1,0-0.2,0c0,0.3,0.3,0.1,0.4,0.2c-0.2,0-0.4,0-0.4,0c-0.2-0.1-0.5-0.1-0.6-0.1c-0.3,0-0.5,0-0.8-0.1s-0.5-0.1-0.8-0.1
		c-0.4,0-0.7-0.1-1.1,0c-0.1,0-0.2-0.1-0.3,0c-0.3,0-0.5-0.1-0.7-0.1c-0.2-0.1-0.4-0.2-0.5-0.2c0,0-0.1,0-0.2,0
		c-0.3,0-0.5-0.1-0.8,0c-0.2,0-0.3-0.1-0.5-0.2c-0.1,0-0.3-0.1-0.5-0.1c-0.2-0.1-0.3,0-0.4,0.1h-0.1c-0.3,0-0.5,0.1-0.8,0.1
		c-0.4-0.1-0.7-0.1-1.1-0.1c-0.2-0.1-0.4-0.1-0.5-0.1s-0.1,0-0.2,0c0.1-0.1,0-0.3-0.3-0.3c-0.2,0-0.4,0-0.7-0.1
		c-0.3,0-0.5-0.1-0.8-0.1c-0.2,0-0.3,0-0.4,0c-0.1,0.1-0.2,0.1-0.3-0.1c-0.1,0-0.2,0-0.3-0.1c-0.2,0-0.4,0-0.6-0.1
		c-0.3,0-0.5-0.1-0.7-0.1c-0.3,0-0.5,0-0.8,0c-0.4,0-0.6-0.1-0.9-0.1c-0.2,0-0.4,0.1-0.5,0.1s-0.3-0.1-0.4-0.1c-0.2-0.1-0.2,0-0.3,0
		c0,0.1-0.1,0.1-0.2,0.1c-0.1-0.1-0.2-0.1-0.3-0.2c-0.3,0-0.6,0-0.9,0h-0.1c-0.2,0-0.3,0-0.4,0h-0.1c-0.3-0.1-0.5-0.1-0.8-0.1
		s-0.6,0-0.9-0.1c-0.3-0.1-0.5-0.1-0.6,0c-0.1,0-0.2-0.1-0.3-0.1s-0.3,0.1-0.4,0.1s-0.5-0.1-0.7-0.1c0,0-0.1-0.1-0.2,0
		c-0.1,0-0.3,0.1-0.4,0c-0.1-0.1-0.2-0.1-0.2-0.1c-0.1-0.2-0.2-0.2-0.4-0.1c0,0.1-0.2,0-0.2,0c-0.3,0-0.5,0-0.7-0.1
		c-0.1,0-0.2,0-0.3,0c-0.1-0.1-0.2-0.1-0.2-0.1c-0.1,0.2-0.3,0.2-0.4,0.2c-0.2-0.1-0.3-0.1-0.5-0.1s-0.4,0-0.4,0
		c-0.2,0-0.3-0.1-0.4-0.1c-0.2,0-0.3,0.1-0.4,0c0-0.1,0,0-0.1,0h-0.1c-0.3,0-0.4-0.1-0.6-0.1c-0.1-0.1-0.2,0-0.4,0
		c-0.1,0-0.2,0-0.3-0.1c-0.1-0.1-0.2-0.1-0.4,0V56c-0.1,0-0.3,0-0.4,0v-0.1c-0.2,0-0.4,0-0.6,0c0,0.1,0,0.1,0.1,0.2
		c-0.2,0-0.3,0-0.5-0.1c-0.2,0-0.4,0-0.5-0.1c-0.1,0-0.1,0-0.1,0c-0.2,0.1-0.4,0-0.5,0s-0.1-0.1-0.2-0.1H124c-0.2,0.2-0.4,0.1-0.5,0
		v0.1c-0.1,0.1-0.5,0-0.6-0.1c-0.2,0-0.3,0-0.4,0c0,0,0,0.2-0.2,0c-0.2,0.2-0.3,0-0.4-0.1c-0.2-0.2-0.3,0-0.4,0s-0.2,0.1-0.3,0.1
		c-0.2,0.1-0.4,0-0.5,0c-0.2-0.1-0.3,0-0.4,0s-0.1,0-0.2-0.1c-0.1,0-0.1,0-0.1,0c-0.2,0.2-0.4,0.1-0.4,0c-0.2,0-0.4,0.1-0.4-0.1
		c-0.2,0-0.3,0-0.4,0v0.1c-0.1,0-0.3,0-0.4-0.1c-0.1,0-0.1,0-0.2,0c-0.3,0.1-0.5,0.3-0.9,0.1c-0.1,0-0.2,0-0.2,0
		c-0.2,0-0.4,0.1-0.5-0.1c-0.1,0-0.2,0.1-0.4,0.1c-0.2-0.2-0.4,0-0.5-0.1l-0.1,0.1c-0.1-0.1-0.1-0.2-0.1-0.3h0.1
		c0-0.1,0.1-0.1,0.1-0.2c0,0,0.1,0,0.1-0.1c-0.1,0-0.1,0-0.1,0c-0.2,0-0.3,0-0.4,0c0,0-0.1,0-0.1,0.1l0.1,0.1c0.1,0,0.1,0,0.1,0
		c0.1,0,0.1,0,0.1,0c-0.1,0.1-0.1,0.1-0.2,0.2c0.1,0,0.2,0,0.3-0.1c0,0.1,0,0.2-0.1,0.2c-0.2,0-0.4,0.1-0.5-0.1h-0.1
		c-0.2,0.1-0.3,0-0.4-0.1c0,0-0.1,0-0.1-0.1c-0.1,0.2-0.3,0.2-0.4,0.1c0-0.1-0.1-0.1-0.2-0.2h0.1c0.1-0.1,0.2-0.1,0.3-0.2
		c0,0.1,0,0.1,0,0.1c0.1,0,0.1-0.1,0.2-0.2c0.2,0.2,0.2-0.1,0.2-0.1c0.1,0,0.2,0,0.3,0c0.1,0,0.1,0,0.1,0c0.2-0.2,0.4,0.1,0.5,0.1
		c0.1-0.1,0.1,0,0.2,0c0.1-0.1,0.2-0.1,0.3-0.2c0,0,0,0.1,0.1,0.2c0-0.1,0-0.1,0-0.2c0.1,0.1,0.1,0.1,0.2,0.1s0.1,0,0.2,0
		s0.2,0,0.2,0c0.1,0,0.3,0,0.4,0s0.1,0.1,0.2,0.1c0-0.1,0-0.1,0-0.1c0.2,0,0.4,0,0.4,0v0.1c0,0.1,0.1,0.1,0.1,0.1
		c0.1-0.1,0.2-0.1,0.3,0h0.1c0.2,0,0.4-0.1,0.5-0.1c0.2,0,0.4-0.1,0.4,0c0.1,0,0.1-0.1,0.1-0.1c0.4,0.1,0.6-0.1,0.9-0.1
		c0.1,0,0.2,0,0.3-0.1c-0.2,0-0.4-0.1-0.5-0.1s-0.3,0-0.4-0.1c-0.2,0-0.4,0.1-0.3,0.3c0,0-0.1,0-0.2,0c-0.2-0.1-0.5-0.2-0.6-0.2
		c-0.3,0-0.5,0-0.8,0s-0.5,0-0.8,0c0,0-0.1,0-0.2-0.1c-0.1,0-0.1-0.1-0.2-0.1s-0.1,0.1-0.2,0.2h-0.1c-0.1-0.2-0.3,0.1-0.5-0.1
		c-0.1,0.2-0.4,0.1-0.5,0.2c-0.1,0-0.3-0.1-0.4-0.1s-0.1,0-0.1,0c-0.1,0.3-0.3,0.2-0.4,0.2c-0.2-0.1-0.2,0-0.3,0.1
		c-0.1,0-0.3,0.1-0.3-0.1c0.1,0,0.2-0.1,0.3-0.1c0-0.1,0-0.1-0.1-0.1s-0.3,0.1-0.4,0.1c-0.3,0-0.5,0-0.8,0h-0.1
		c-0.1,0.1-0.2,0.2-0.3,0.2c-0.1,0.1-0.2,0.1-0.2,0.1c0,0.1,0,0.1,0,0.1c0.2,0,0.4-0.1,0.5,0.2c0,0,0.1,0,0.1-0.1
		c0.1,0,0.3,0,0.4-0.1c0,0.1,0,0.2,0,0.2c-0.1,0-0.1,0-0.2,0c0,0.1-0.1,0.1-0.1,0.1c-0.1,0-0.1,0.1-0.2,0.1s-0.1,0-0.2,0v0.1
		c-0.1,0-0.1,0.1-0.2,0.1s-0.2,0-0.3,0c-0.1,0-0.2-0.1-0.3,0c-0.2,0.1-0.4,0.1-0.5-0.1c-0.2-0.1-0.4,0-0.5,0.1
		c-0.3,0.1-0.4,0.1-0.5-0.2c-0.1,0.1-0.3,0.2-0.4,0.1c-0.2,0-0.4,0-0.5-0.1H109c-0.4,0.1-0.8,0.1-1.2,0.1c-0.3,0-0.5-0.1-0.8-0.1
		c-0.1-0.1-0.1-0.1-0.2-0.2c-0.1,0-0.2,0-0.1,0.1c0,0.1-0.2,0.2-0.2,0.2c-0.2-0.1-0.3-0.1-0.5-0.2h-0.2c-0.2,0.1-0.2,0.1-0.3,0.1
		c-0.2-0.2-0.4-0.1-0.4,0.1c0,0,0,0.1-0.1,0.1s-0.3,0-0.4,0s-0.1-0.1-0.1-0.1c-0.1-0.2-0.3-0.1-0.5-0.1s-0.4-0.1-0.6,0
		s-0.4,0.2-0.5,0.1c-0.1,0-0.2,0-0.3,0c-0.1-0.1-0.2-0.1-0.3-0.1c-0.2,0-0.4,0-0.7,0.1c-0.4,0.1-0.8,0-1.2,0.1c-0.4,0-0.8-0.1-1.2,0
		c-0.1,0-0.1,0-0.1,0c-0.1,0-0.2,0.1-0.3,0c-0.1,0-0.3,0-0.4,0c-0.3-0.1-0.5-0.1-0.8-0.1c-0.1,0-0.2,0-0.3,0c-0.1,0-0.2,0.1-0.2,0
		c-0.2,0-0.3,0-0.4,0.1s-0.2,0.1-0.3,0.1c-0.2,0.1-0.3,0.1-0.4,0.2c-0.1,0-0.3,0-0.4,0c-0.4,0-0.7,0.1-1,0.1c-0.2,0-0.3,0-0.4-0.1
		c-0.3-0.2-0.5-0.2-0.6,0c-0.2,0-0.4,0.1-0.5-0.1c-0.1,0-0.2-0.1-0.3,0c-0.2,0.2-0.4,0.1-0.6,0.1s-0.4-0.1-0.5-0.2
		c-0.1,0-0.2,0-0.3,0.1c0,0.1,0,0.1-0.1,0.1c-0.3-0.1-0.5,0-0.8,0.1s-0.5,0.2-0.7,0.3c-0.1,0-0.2,0-0.2,0c-0.1-0.1-0.2-0.1-0.3-0.1
		c0,0.3-0.2,0.5-0.4,0.4c-0.1,0-0.2,0-0.4,0.1c-0.1,0-0.2,0.1-0.3,0.1c0,0-0.1-0.1-0.2-0.1s-0.1,0-0.2,0c-0.2,0.1-0.4,0.1-0.6,0.2
		c-0.1,0-0.2,0.1-0.3,0.1c-0.2,0.1-0.4,0.1-0.5,0.2c-0.2,0.2-0.3,0.1-0.4,0.1c-0.1,0.1-0.1,0.1-0.2,0.1c-0.2,0.2-0.3,0.4-0.6,0.4
		c0,0-0.1,0.1-0.1,0.2c0.2,0,0.3,0,0.4,0c0,0,0,0,0.1,0c-0.1,0.1-0.2,0.1-0.3,0.1c-0.1,0.1-0.2,0.1-0.1,0.3c0.3-0.1,0.5-0.1,0.8-0.3
		c0.2-0.1,0.4-0.1,0.5-0.1c0-0.1-0.1-0.2-0.1-0.2c0.2,0,0.4,0,0.6-0.1c0,0-0.1,0-0.1-0.1c0.1,0,0.1-0.1,0.2-0.1
		c0.2,0,0.4-0.1,0.5-0.1c0.4,0,0.6,0,0.9,0c0.1-0.1,0.1-0.1,0.1-0.1c0.1-0.2,0.4-0.1,0.4-0.3l0.1,0.1c0.1,0,0.2,0,0.3,0
		C89.3,57,89.3,57,89.2,57c0.1-0.1,0.2-0.1,0.3-0.1c0.4-0.1,0.7-0.1,1-0.2c0.3,0,0.5-0.1,0.8,0v0.1c-0.1,0-0.3,0-0.4,0.1
		c-0.2,0-0.4,0-0.5,0c0,0.1-0.1,0.1-0.1,0.2c0.4,0,0.8,0.1,1.2-0.2c0,0,0-0.1-0.1-0.1c0.4,0,0.6,0,0.9-0.2c0,0.1,0,0.1,0,0.2
		c0.1,0,0.2,0,0.4-0.1c0,0-0.1-0.1-0.1-0.2c0.1,0.1,0.2,0.1,0.3,0.1c0.1,0.1,0.2,0.1,0.3,0.1c0.1-0.1,0.2-0.1,0.3-0.2
		c0.1,0,0.2-0.1,0.3,0.1c0.1,0.1,0.2,0,0.3-0.1c0.2,0.1,0.4,0.2,0.5,0.2s0.3,0,0.4,0c0.3,0,0.4,0,0.7,0.1c0.1,0,0.1,0,0.3,0
		c-0.1-0.1-0.1-0.1-0.2-0.2c0.3,0,0.5,0,0.8-0.1c-0.3-0.1-0.5-0.2-0.7-0.1c-0.1,0-0.2,0-0.3,0c-0.1,0-0.3,0-0.4,0
		c0-0.3,0.2-0.4,0.4-0.3c0.1,0,0.3,0,0.4,0c0.4,0,0.6,0,0.9,0c0.4,0,0.7,0.1,1,0.1c0.5,0.2,0.9,0.1,1.3,0c0.3,0,0.5-0.1,0.8-0.1
		c0.3-0.1,0.6-0.1,1,0c0.1,0,0.2,0,0.3,0c0.3,0,0.6,0,0.9,0c-0.1,0.1-0.1,0.1-0.2,0.2c0.1,0,0.1,0,0.2,0c0.3,0.1,0.5,0.1,0.7,0.1
		s0.6,0.1,0.9-0.1c0.1-0.1,0.2-0.1,0.4-0.1c-0.1,0.1-0.1,0.2-0.2,0.2c-0.2,0-0.3,0.2-0.4,0.1c-0.2,0.1-0.4,0-0.5,0.1
		s-0.2,0.1-0.4,0.1c-0.1,0-0.2,0-0.3,0.2c-0.1,0-0.2,0-0.3,0c-0.1-0.1-0.3-0.1-0.4-0.1s-0.2,0-0.4,0c-0.1-0.1-0.2,0-0.3,0
		c0,0,0,0,0,0.1c0,0,0.1,0,0.2,0c0.2,0.1,0.4,0,0.5,0.1c0.2,0,0.3,0.1,0.5,0.1c0,0.1,0.1,0.1,0.2,0c0.2,0,0.3,0,0.4,0.2
		c-0.1,0-0.1,0-0.1,0c-0.1,0-0.1,0-0.1,0v0.1c-0.1,0-0.1,0-0.1,0c-0.3,0-0.5,0-0.7,0c-0.4,0-0.6,0.1-1,0.3c-0.1,0-0.4,0-0.5,0.1
		c0,0-0.1,0-0.2,0.1V58c0.1,0,0.2,0.1,0.3,0.1c0.4-0.1,0.6-0.1,1-0.2c0,0,0,0,0.1,0.1c-0.1,0.1-0.1,0.1-0.4,0.3c0.1,0,0.2,0,0.3,0
		c0.3-0.1,0.6-0.1,0.9-0.2c0.2-0.1,0.4-0.1,0.6-0.1h0.1c0.2-0.2,0.4-0.2,0.5-0.2c0.3,0.1,0.5,0,0.8-0.1c0.2-0.1,0.4-0.1,0.6-0.2
		c0.2,0,0.4-0.1,0.5-0.1s0.1,0,0.1,0c0.3-0.1,0.5-0.2,0.8-0.2c0.2,0,0.4,0.1,0.5,0.1s0.1,0.1,0.1,0.2c0,0-0.1,0-0.2,0
		c-0.1-0.1-0.2,0-0.3,0c-0.1,0.1-0.3,0-0.4,0v0.1c0.1,0,0.2,0.1,0.2,0.1c-0.1,0.1-0.3,0.2-0.4,0.1c-0.4,0.1-0.6-0.1-1,0
		c-0.1,0-0.3,0-0.4,0.1c-0.1,0-0.1,0-0.1,0.1s0,0.2,0,0.2c-0.2,0-0.3,0-0.4,0.1c0,0-0.1,0-0.2-0.1s-0.3,0-0.4,0
		c-0.2,0-0.3-0.1-0.3,0.1c0,0.1-0.2,0.1-0.2,0.1c-0.4,0-0.6,0-0.9,0s-0.6,0-1,0c-0.3,0-0.5,0-0.8,0.1c-0.2,0-0.4,0-0.6,0
		c-0.1,0-0.3,0-0.4,0.1c-0.1,0-0.2,0-0.3,0c-0.2-0.1-0.4,0-0.5,0.2s-0.3,0.1-0.4,0.1C97.8,59,97.6,59,97.5,59s-0.3,0-0.5-0.1
		c-0.1-0.1-0.3,0-0.4,0.1c0,0-0.1,0.1-0.2,0.1c-0.4-0.1-0.7-0.1-1.1,0c-0.1,0-0.2,0-0.3,0c-0.2,0-0.4,0-0.4,0.1c-0.2,0-0.4,0-0.5,0
		s-0.3,0-0.4,0.1c-0.3,0.2-0.4,0.1-0.7,0c-0.3-0.1-0.4-0.1-0.5,0.1c0.1,0.1,0.1,0.1,0.1,0.1c1.7,0.5,1.4,0.5,1.1,0.6
		c-0.2,0-0.4,0.1-0.5,0.1c-0.1-0.1-0.3,0-0.4-0.2c-0.1,0-0.2,0-0.2,0c-0.2,0-0.3,0-0.4,0c0,0,0,0-0.1,0c-0.3,0.1-0.4,0-0.7,0
		c-0.2,0-0.4,0-0.5,0c-0.3,0-0.6,0.1-0.9,0c-0.2,0-0.3,0.1-0.3,0.3c-0.1,0-0.2-0.1-0.3-0.1c-0.1,0-0.2,0.1-0.3,0.1
		c-0.2,0-0.5-0.1-0.7-0.1c-0.1,0-0.1,0.1-0.2,0.1l-0.1,0.1c-0.1,0-0.2,0-0.2,0c-0.1,0-0.2,0-0.3,0c-0.1-0.1-0.2-0.1-0.3-0.1
		c0,0,0,0-0.1,0c-0.1,0.1-0.3,0.1-0.5,0c0.1,0,0.1,0.1,0.1,0.1c-0.1,0.1-0.2,0.1-0.3,0.1c-0.1,0-0.3,0.2-0.4,0
		c-0.1,0-0.2-0.2-0.4-0.1c0,0.1-0.1,0-0.1,0c-0.2-0.1-0.4-0.2-0.6-0.1c0,0-0.1-0.1-0.2-0.1c0,0,0,0,0-0.1c-0.1,0.1-0.3,0.1-0.4,0.1
		c0,0.1-0.1,0-0.1,0c-0.1,0-0.1-0.1-0.1-0.1c0.1,0,0.1,0,0.2,0c0.2-0.1,0.3-0.3,0.4-0.3l0.1-0.1c-0.1,0-0.3-0.1-0.4,0
		c0,0.1-0.1,0-0.1,0c-0.1,0-0.2,0.1-0.3,0.1c-0.2,0-0.4,0.1-0.5,0.2c0,0,0,0-0.1,0c-0.2-0.1-0.4-0.1-0.5-0.1S82.8,60,82.7,60
		c-0.1,0-0.4,0-0.5-0.1s-0.1,0-0.2,0s-0.3,0.1-0.4,0c-0.2-0.1-0.3,0.1-0.4,0.1s-0.1-0.1-0.2-0.1c0,0.1,0,0.3-0.2,0.1c0,0,0,0-0.1,0
		c0,0-0.1,0.1-0.1,0c-0.2-0.1-0.2,0-0.2,0.1c-0.2,0.1-0.4,0.2-0.6,0.2c-0.1,0-0.1,0-0.2,0s-0.2,0-0.4,0h-0.1c-0.1,0-0.1,0-0.2,0
		c0,0,0,0-0.1,0c0,0-0.1,0-0.1,0.1s-0.1,0-0.2,0s-0.2,0-0.2,0c-0.3,0.1-0.4,0.1-0.4,0c-0.2,0-0.2,0.2-0.4,0.1h-0.1
		c-0.1,0-0.1,0-0.2,0c-0.2-0.1-0.5-0.1-0.6,0c-0.2,0.1-0.3,0-0.4,0c-0.2,0-0.4,0-0.5,0s-0.2,0-0.3,0c0.5,0.5,0.4,0.5,0.4,0.5v-0.1
		c-0.1,0.1-0.1,0.1-0.2,0.2c-0.2,0-0.4,0.1-0.6,0.1s-0.5,0-0.7,0c-0.1-0.1-0.2,0-0.3,0c-0.1,0.1-0.2,0.1-0.3,0.1
		c-0.1,0-0.2,0.1-0.3,0.1s-0.2-0.1-0.3-0.1c-0.1,0-0.3-0.1-0.4-0.1c-0.2,0-0.3,0.1-0.3-0.1c-0.1,0-0.1,0-0.2-0.1
		c0.1,0.1,0.1,0.1,0.1,0.2c-0.1,0-0.3,0.2-0.4,0c0,0-0.1,0-0.2,0c-0.2,0-0.4,0-0.5,0c-0.2,0-0.4,0-0.5-0.1c-0.1,0-0.1,0.1-0.2,0.1
		s-0.3,0-0.4-0.1c-0.1,0-0.1,0-0.1,0c-0.2,0.1-0.4,0.1-0.5,0.1c0,0-0.1-0.1-0.2-0.1c-0.2,0.1-0.3,0.1-0.4,0.1s-0.3,0.1-0.4,0.1
		c-0.2,0-0.3-0.1-0.5-0.1v0.1c-0.1,0-0.3,0-0.4-0.1c-0.1,0-0.2,0-0.3,0.1c-0.2,0.1-0.4-0.2-0.5,0c-0.2,0.1-0.4,0-0.5,0
		s-0.1-0.1-0.2-0.1c0.1-0.1,0.1-0.1,0.2-0.1c0.1-0.3,0.4-0.2,0.5-0.2c0.3-0.1,0.5-0.1,0.8-0.1c0.1,0,0.2,0,0.3-0.1
		c0.1,0,0.3-0.1,0.4-0.2c0.1,0,0.2-0.1,0.2-0.1v-0.1c-0.1,0-0.2,0-0.3,0c-0.2,0-0.4,0-0.5,0s-0.2,0-0.2,0c-0.3,0-0.4,0-0.6,0
		c-0.1,0-0.1,0.1-0.2,0.1c-0.1-0.2-0.2-0.1-0.3-0.1c-0.1,0.1-0.2,0.2-0.3,0.2c0-0.4-0.3-0.1-0.4-0.2c-0.2,0.1-0.4,0.1-0.5,0.2
		c0,0,0,0-0.1-0.1c0,0.1-0.1,0.1-0.1,0.1c-0.2,0.1-0.3,0.1-0.4,0.1c-0.2-0.1-0.3-0.2-0.4,0c0,0,0,0-0.1,0c0-0.1,0-0.2,0-0.4
		c-0.4,0-0.7,0-1.1,0c-0.1,0.1-0.2,0.2-0.2,0.4c0.1,0,0.2,0,0.3,0s0.1,0,0.1,0c-0.1,0-0.1,0.1-0.1,0.1c-0.1,0-0.1,0-0.1,0v0.1
		c-0.1-0.1-0.3-0.1-0.4,0c-0.1,0-0.2-0.1-0.2-0.3c0,0,0,0,0-0.1c-0.1,0-0.2,0.1-0.2,0.1c-0.1,0.3-0.3,0.4-0.5,0.4
		c0.1-0.2,0.1-0.2,0.3-0.3c0-0.1,0-0.2,0-0.3c-0.1,0-0.1,0-0.3,0c0.1,0.1,0.1,0.1,0.1,0.2c-0.1,0-0.2,0-0.2,0
		c-0.1,0.2-0.3,0.4-0.3,0.6c0-0.1-0.1-0.2-0.1-0.2c-0.3,0.2-0.4,0.2-0.5,0c-0.3,0.3-0.6,0.1-0.9,0.2c0-0.2,0-0.2,0.3-0.2
		c0-0.3,0.2-0.1,0.3-0.2c0,0,0,0,0-0.1c0.1-0.1,0.1-0.1,0.2-0.2c0.1-0.2,0.2-0.2,0.3-0.2c-0.1,0.1-0.1,0.3-0.2,0.4
		C61,60.7,60.9,60.3,61.1,60.3c-0.1-0.1-0.2-0.1-0.2-0.1c0.1-0.2,0.1-0.3,0.2-0.4c-0.1,0-0.1,0-0.2-0.1c0.1,0,0.1,0,0.2-0.1
		C61.4,60.4,61.2,60.3,61.1,60.3z M39.4,64.7c0,0.2,0.2,0.1,0.2,0.1c0.1,0,0.1,0,0.2-0.1c-0.1,0-0.1,0-0.1,0
		C39.6,64.7,39.5,64.7,39.4,64.7z M50.4,62.3L50.4,62.3c0.2,0,0.3,0,0.4-0.1c-0.1-0.1-0.2-0.2-0.2-0.2
		C50.6,62.1,50.5,62.1,50.4,62.3C50.4,62.2,50.4,62.3,50.4,62.3z M54.6,61.5c-0.2,0.1-0.4,0.1-0.5,0.2
		C54.2,61.6,54.4,61.5,54.6,61.5z M54.8,62.2c-0.2,0.1-0.4,0.1-0.5,0.1v-0.1c0.1,0,0.2-0.1,0.3-0.1c0.1-0.1,0.2-0.1,0.3-0.1
		s0.1,0,0.1,0L54.8,62.2L54.8,62.2z M54.9,61.2c0,0.3-0.1,0.3-0.3,0.3C54.6,61.4,54.8,61.3,54.9,61.2z M56.4,61.6
		c-0.3,0-0.4,0.1-0.7,0.1c-0.1,0-0.2,0-0.2,0.1C55.4,62,55.3,62,55.1,62c0-0.3,0.2-0.3,0.3-0.3c0.1-0.1,0.1-0.1,0.2-0.2
		c0.1,0.1,0.3,0.1,0.4,0C56.3,61.5,56.3,61.5,56.4,61.6z M57,61.4c0.1,0,0.2,0,0.4,0.1c0.1-0.2,0.2-0.1,0.4,0
		C57.5,61.5,57.2,61.7,57,61.4z M59.7,61.2L59.7,61.2c-0.1,0.1-0.1,0.1-0.1,0.2c-0.1-0.1-0.1-0.1-0.1-0.2
		C59.5,61.2,59.6,61.1,59.7,61.2C59.7,61.1,59.7,61.1,59.7,61.2z M61.1,60.3c0,0.1,0,0.3,0.1,0.4c-0.3-0.1-0.4-0.1-0.5,0
		c-0.2,0.1-0.3,0.2-0.3,0.3c0,0,0,0,0-0.1c-0.1-0.1-0.2-0.2-0.3-0.3c0.1,0,0.2-0.1,0.3-0.1c0.2,0,0.3,0,0.4,0
		C60.9,60.5,61,60.5,61.1,60.3z M63,60.3c-0.2,0-0.2-0.1-0.3-0.1c-0.1-0.1-0.2-0.1-0.2,0.1c-0.1,0.1-0.1,0.1-0.2,0
		c-0.1,0-0.2,0-0.2,0c-0.3,0.2-0.4,0.3-0.6,0.5c0,0,0,0.1-0.1,0.1c0.1,0,0.2,0.1,0.2,0c0.2-0.1,0.3-0.3,0.6-0.3
		c0.2,0,0.4-0.1,0.4-0.1C62.8,60.4,62.8,60.4,63,60.3z M64.7,61.3c0.1,0.2-0.1,0.2-0.4,0.1C64.5,61.4,64.6,61.3,64.7,61.3z
		 M64.7,59.5c0-0.2,0-0.2-0.3-0.1C64.5,59.5,64.6,59.5,64.7,59.5z M64.8,60.4c0.1,0,0.1,0,0.2,0c0.1-0.1,0.2-0.1,0.4,0
		c0,0,0,0,0-0.1c0.1,0,0.1,0,0-0.1s-0.3-0.1-0.4-0.1C64.9,60.1,64.9,60.3,64.8,60.4z M66.1,58.7c-0.2,0.1-0.3,0.1-0.4,0.1
		c0.1,0.1,0.2,0.2,0.3,0.1C66.2,58.9,66.1,58.8,66.1,58.7z M66.6,58.5c-0.1,0-0.1,0-0.2,0c0,0,0,0.1,0,0.2c0,0,0,0-0.1,0
		c0,0.1,0,0.1,0.1,0.1s0.2,0,0.3,0C66.7,58.7,66.6,58.6,66.6,58.5c0.1,0.1,0.2,0.1,0.3,0.1c0,0,0.1-0.1,0.2-0.2
		C66.8,58.4,66.8,58.4,66.6,58.5z M67.4,58c-0.1,0-0.3,0-0.3,0.2C67.3,58.3,67.4,58.2,67.4,58z M69,59.2c0-0.1,0-0.1-0.5-0.1v0.1
		c-0.2,0-0.3,0-0.4-0.1c0,0.1,0,0.1,0,0.1s0,0.1,0.1,0.1c0,0.1,0.1,0.1,0.2,0.2c0,0,0.1,0,0.1,0.1c0.1-0.1,0.1-0.2,0.1-0.2
		c0.1-0.1,0-0.1,0-0.2C68.9,59.2,68.9,59.2,69,59.2z M68.6,60.6c-0.1-0.1-0.2-0.1-0.3-0.1c0,0,0,0,0,0.1
		C68.3,60.7,68.5,60.6,68.6,60.6z M68.6,57.2L68.6,57.2c-0.1-0.1-0.2-0.1-0.4-0.1v0.1C68.4,57.2,68.5,57.2,68.6,57.2z M69.7,58.4
		C69.7,58.3,69.8,58.3,69.7,58.4c0-0.1-0.1-0.2-0.2-0.2s-0.1,0-0.1,0c-0.1-0.1-0.2-0.1-0.3,0c0,0-0.1,0-0.2,0.1v0.1H69
		c0.1,0,0.2,0,0.3,0C69.4,58.4,69.6,58.4,69.7,58.4z M69.9,59.5c-0.1,0-0.1,0-0.2,0s-0.2,0-0.4,0c0,0.1-0.1,0.1-0.1,0.2
		c-0.1,0,0,0.1,0,0.1c0.1,0,0.1,0.1,0.2,0.1c0.2-0.1,0.4-0.2,0.5-0.2C69.9,59.5,69.9,59.5,69.9,59.5z M70,58.2
		c0.2,0.1,0.5,0.1,0.7-0.1c-0.1,0-0.3-0.1-0.4-0.1C70.2,58,70.1,58,70,58.2z M70.3,55.9c-0.3-0.1-0.4,0-0.3,0.2c0.1,0,0.2,0,0.3,0
		C70.2,55.9,70.2,55.9,70.3,55.9z M72,58.5c-0.2-0.1-0.3,0.2-0.4,0.2v0.1c0.1,0,0.2,0,0.3,0C71.8,58.7,71.9,58.6,72,58.5z
		 M71.9,58.1c0-0.3-0.1-0.3-0.3-0.2C71.8,58,71.9,58,71.9,58.1z M72,57.8c0.2-0.1,0.4,0,0.5-0.1C72.2,57.6,72,57.6,72,57.8z
		 M72.6,57.6c-0.1,0.3,0,0.3,0.3,0.2H73c0.3,0,0.3-0.1,0.3-0.4C73,57.5,72.8,57.5,72.6,57.6z M73.6,59.2c-0.3-0.1-0.4,0-0.4,0.2
		C73.3,59.4,73.4,59.3,73.6,59.2z M75.2,55.2c0-0.1-0.1-0.2-0.1-0.2c-0.1,0-0.2,0-0.4,0c0,0.1,0,0.2-0.1,0.3c0.1,0,0.2,0,0.2,0
		C75,55.3,75.1,55.2,75.2,55.2z M74.9,55.6L74.9,55.6c0.1-0.1,0.2-0.1,0.4-0.1l0.1-0.1h0.1c0.1-0.2,0.2,0,0.4,0c0,0,0.1,0.1,0.2,0.1
		C75.6,55.5,75.2,55.6,74.9,55.6z M76.1,55.3c-0.2,0-0.3,0.1-0.4,0.1c0-0.1,0-0.2,0.1-0.1C75.9,55.3,76,55.3,76.1,55.3z M76.5,58.8
		c-0.2-0.2-0.4-0.2-0.5,0c0.1,0.1,0.1,0.1,0.2,0.2c0,0-0.1,0.1-0.2,0.1c0,0,0.1,0,0.1,0.1c0,0,0.1,0,0.2,0c0-0.1,0-0.1-0.1-0.1
		C76.3,59,76.4,58.9,76.5,58.8z M76.7,55.3c-0.1-0.1-0.2-0.2-0.5-0.1l-0.1-0.1v0.1c0-0.1,0-0.1,0-0.1c0.1-0.1,0.2-0.1,0.3-0.1
		c0.2-0.1,0.4-0.1,0.5,0c0,0.1,0.1,0.1,0.1,0.1c0,0.1,0.1,0.2,0.1,0.3C76.9,55.4,76.8,55.1,76.7,55.3z M76.7,55.3
		c-0.3,0.2-0.4,0.2-0.5-0.1C76.3,55.3,76.5,55.3,76.7,55.3z M77.1,57.5L77.1,57.5c0-0.3-0.2-0.1-0.3-0.2c0,0.1,0,0.1,0,0.1
		C76.9,57.5,77,57.5,77.1,57.5z M77.9,55.1c-0.2,0-0.3-0.1-0.5-0.1c0,0,0,0.1-0.1,0.1h0.1C77.6,55.1,77.7,55.1,77.9,55.1z M78,56.5
		c0.2,0,0.3,0,0.4,0c0-0.2-0.2-0.2-0.3-0.3C78,56.2,78,56.3,78,56.5z M79.1,54.5c0,0.1,0.1,0.1,0.2,0c0.3,0,0.5,0,0.8-0.1
		c0-0.2-0.2-0.1-0.3-0.1C79.6,54.3,79.3,54.4,79.1,54.5L79.1,54.5c-0.3,0-0.5,0-0.7,0c-0.1,0-0.2,0-0.3,0.2c0.2,0,0.4,0,0.5,0
		c0-0.2,0.2-0.1,0.3-0.1C79,54.6,79,54.6,79.1,54.5z M78.7,56.7c-0.2,0-0.3,0-0.4,0c0,0.1,0.1,0.2,0.1,0.2
		C78.5,56.9,78.7,56.8,78.7,56.7z M78.3,58.7L78.3,58.7c0.3-0.1,0.5-0.2,0.9-0.3c0.1,0.4,0.3,0.1,0.5,0.1c0-0.1,0-0.1-0.1-0.2
		c-0.1,0-0.2,0-0.3,0c-0.1,0-0.1-0.2-0.3-0.1c0,0.1-0.2,0-0.2,0.1c-0.2,0.1-0.3,0.2-0.4,0.2C78.4,58.6,78.3,58.7,78.3,58.7z
		 M79.9,57.6c-0.2,0.1-0.2,0.2-0.3,0.2c0,0.1,0,0.1,0,0.1C79.7,57.9,79.8,57.8,79.9,57.6L79.9,57.6z M80,57.4c0,0.2,0.2,0.2,0.3,0.2
		c0.2,0,0.2,0,0.2,0.2c0.2-0.1,0.2-0.2,0.1-0.3C80.3,57.4,80.2,57.4,80,57.4z M80.5,55.9c0.1,0.1,0.2,0.1,0.2,0.2
		c-0.1,0-0.3,0-0.4,0C80.4,56.1,80.5,56,80.5,55.9z M80.7,56c0.3,0,0.4-0.1,0.7,0.1C81.2,56.1,81,56.1,80.7,56z M82.4,54.2
		c0.1,0,0.1,0.1,0.2,0.1c0.1-0.1,0.2-0.1,0.2-0.1c0-0.2,0.1-0.2,0.2-0.2v0.1c0,0.3-0.2,0.3-0.4,0.2c-0.1,0-0.3,0-0.3,0.2
		c0,0.1-0.1,0.1-0.2,0.1H82c0,0,0-0.1,0.1-0.1S82.2,54.3,82.4,54.2z M82.8,57.4c-0.1,0-0.3-0.1-0.4-0.1c0,0,0,0,0,0.1
		c0.1,0,0.1,0.1,0.2,0.1c0.2,0,0.3,0.2,0.4,0c0.1-0.1,0.3-0.1,0.4-0.1c0,0,0.1,0,0.1-0.1c0.2-0.1,0.4,0,0.5,0c0-0.1,0.1-0.2,0.2-0.2
		c0.1-0.1,0.1,0.1,0.2,0.1c0.1,0.1,0.2,0.1,0.2,0.1c0.1,0,0.3-0.1,0.3-0.1c0.2,0.2,0.4,0,0.5,0c-0.1-0.1-0.1-0.1-0.1-0.2
		c0,0,0.1,0,0.2-0.1c0,0,0.1,0,0.2-0.1c0.1,0,0.1,0,0.2-0.1v-0.1c-0.1-0.1-0.5-0.2-0.6,0c-0.1,0.1-0.2,0.2-0.3,0.1
		c0,0.3-0.4,0.3-0.6,0.3c0-0.1,0-0.1,0-0.2c-0.2,0-0.3,0.2-0.4,0.2s-0.3,0.1-0.4,0.1s-0.2,0.1-0.4,0.1
		C83.1,57.1,82.8,57.2,82.8,57.4z M83.1,57.9c0-0.1,0-0.1,0-0.2c-0.1,0.1-0.2,0.1-0.3,0.1C82.8,58,83,57.9,83.1,57.9z M84.1,53.3
		C84.1,53.2,84.1,53.2,84.1,53.3c-0.1-0.1-0.3-0.1-0.4-0.1s-0.2,0-0.2,0.1c-0.1,0-0.2,0.1-0.3,0.2c0,0.1,0.2,0.2,0.3,0.1
		c0.1-0.1,0.2-0.1,0.3-0.2C83.9,53.4,84,53.3,84.1,53.3z M84.7,58.2c0.1,0,0.3-0.1,0.4-0.2C84.8,57.9,84.8,58,84.7,58.2L84.7,58.2z
		 M84.4,52.3C84.4,52.4,84.4,52.4,84.4,52.3c0.1,0.1,0.1,0.2,0.2,0.2l0.1-0.1C84.6,52.4,84.5,52.3,84.4,52.3z M85.9,57.7
		c-0.2-0.2-0.6-0.2-0.7,0.1c0,0,0.1,0.1,0.2,0.1c0-0.1,0-0.2,0.2-0.1C85.7,57.9,85.9,57.8,85.9,57.7c0.1,0,0.3,0.1,0.4,0
		C86.2,57.6,86,57.5,85.9,57.7z M85.4,60.1c0.1,0.1,0.1,0.2,0.2,0.2c0.1-0.1,0.1-0.2,0.1-0.3C85.6,60,85.5,60.1,85.4,60.1z
		 M85.6,57.1c0.1,0.1,0.2,0.2,0.4,0.2c0-0.1,0-0.2,0-0.4C85.8,57,85.7,57,85.6,57.1z M86.2,56.8c0-0.2,0-0.2-0.2-0.2
		c-0.1,0-0.1,0-0.1,0.2C86.1,56.8,86.1,56.8,86.2,56.8z M86.3,57.2c0.1,0,0.2,0.1,0.2,0.1c0.3-0.1,0.5-0.1,0.7-0.2
		C87.1,56.8,86.6,56.9,86.3,57.2z M87.2,58.8c-0.1-0.2-0.3-0.1-0.4-0.1s-0.1,0-0.2,0.1C86.9,58.8,87,58.8,87.2,58.8z M86.9,52.5
		L86.9,52.5L86.9,52.5c0.2,0.1,0.3,0.1,0.3,0.1c0.3,0,0.5,0,0.7,0c0.1,0,0.2-0.1,0.3-0.1c0.1,0,0.1-0.1,0.2-0.1v-0.1
		c-0.1,0-0.2,0-0.2,0c-0.2,0-0.3,0.1-0.4,0.1s-0.3-0.1-0.4-0.1C87.3,52.3,87.1,52.4,86.9,52.5z M89.3,52.9c-0.2,0.2-0.3,0-0.4,0
		C89,52.8,89.1,52.8,89.3,52.9z M90.7,55.4c-0.1,0.3-0.5,0.3-0.7,0.2c0.1-0.2,0.2-0.2,0.3-0.1c0.1,0,0.2,0,0.3,0
		C90.5,55.5,90.6,55.4,90.7,55.4z M90.2,56.4C90.2,56.5,90.2,56.5,90.2,56.4c0,0.1,0.1,0.1,0.2,0.1s0.2,0,0.2,0.1
		c0.2,0.1,0.3,0,0.4-0.2C90.6,56.3,90.3,56.4,90.2,56.4z M90.7,52.4c-0.1,0-0.2-0.1-0.3-0.1c0.1-0.1,0.2-0.1,0.3-0.2
		c-0.2,0-0.3,0-0.3-0.1c-0.1,0.2-0.1,0.3-0.1,0.4C90.5,52.4,90.6,52.4,90.7,52.4z M91.1,55.7C91.1,55.8,91.1,55.8,91.1,55.7
		c-0.2,0.1-0.4,0.1-0.4,0.1c-0.1,0-0.1-0.1-0.1-0.1C90.8,55.7,90.9,55.7,91.1,55.7z M91.6,59.5c-0.3,0-0.4,0-0.6,0
		c-0.1,0-0.1,0-0.1,0.1c0.1,0.1,0.2,0.1,0.2,0.1c0.1,0,0.3,0,0.4,0C91.5,59.8,91.6,59.7,91.6,59.5z M92.7,56.2c0.3,0.2,0.4,0,0.7,0
		c0.2-0.1,0.4-0.1,0.6-0.2c-0.2-0.1-0.3-0.1-0.4-0.1c-0.2,0-0.4,0.1-0.4,0.1c-0.2,0.1-0.3,0.1-0.4,0.1
		C92.8,56.1,92.8,56.2,92.7,56.2z M93.4,59.8c-0.2,0-0.3,0-0.4,0C93,60,93.2,60,93.4,59.8z M92.9,51.8c0.3,0.1,0.4,0.1,0.4-0.1
		C93.2,51.7,93,51.8,92.9,51.8z M94.5,58.1C94.4,58,94.2,57.9,94,58c-0.1,0-0.2,0.1-0.2,0.1c-0.3-0.1-0.4,0-0.6,0.1
		c0.3,0,0.4,0,0.6,0.2c0,0,0-0.1,0.1-0.1C94.1,58.2,94.3,58.1,94.5,58.1L94.5,58.1z M94.4,55.5c-0.2-0.3-0.6-0.2-0.8,0.1
		C93.9,55.6,94.2,55.7,94.4,55.5z M94.1,56.1c0.2,0.2,0.4,0.1,0.4-0.1C94.4,56,94.2,56.1,94.1,56.1z M95,57.3L95,57.3l0.1,0.2
		c0.1,0,0.3,0.1,0.5,0.1c0.4,0,0.7-0.1,1.1-0.1c0-0.1-0.1-0.1-0.1-0.2c-0.2-0.2-0.3-0.1-0.5,0c-0.1,0.1-0.2,0.1-0.3,0.1
		C95.4,57.4,95.2,57.3,95,57.3z M96,51.6c-0.4,0.2-0.4,0.2-0.5,0C95.6,51.6,95.8,51.6,96,51.6z M97.3,55.1c0-0.1,0-0.1,0-0.2
		c0.3,0.2,0.5,0,0.8-0.1c0.1,0,0.3-0.1,0.4-0.1c0.2,0.1,0.5,0.1,0.7,0.1c0,0,0.1,0,0.2,0c0,0,0.1,0.1,0.2,0.1c0.4,0,0.7-0.1,1.2-0.1
		l0.1-0.1c0.1-0.1,0.1-0.2,0.2-0.1c0,0.1,0.1,0.1,0.2,0.1c0.2-0.1,0.4,0.1,0.5,0.1c0.2,0.1,0.3,0.1,0.4,0s0.2-0.1,0.4-0.1
		c-0.1-0.1-0.1-0.1-0.1-0.1s0-0.1-0.1-0.2c0.1,0,0.2,0,0.2,0c0.2,0,0.4,0.1,0.5,0.1c0.2-0.1,0.4-0.1,0.6-0.1c0.1,0,0.3,0,0.4,0
		c0,0.1-0.1,0.1-0.1,0.1c0.2,0,0.3,0,0.4,0.1c0.2,0,0.4,0,0.5,0c0.3,0,0.4,0,0.7,0c0,0,0,0,0.1,0c0.3-0.1,0.5-0.1,0.9,0
		c0.1,0,0.2,0,0.3,0.1c-0.1,0.1-0.4,0.2-0.6,0.1c-0.1-0.1-0.2-0.1-0.2-0.1c-0.2,0-0.4,0-0.4,0c-0.1,0-0.2,0.1-0.3,0.2c0,0,0,0,0,0.1
		c-0.1-0.1-0.2-0.1-0.3-0.1c-0.1,0-0.2,0-0.4,0c-0.1-0.2-0.2-0.2-0.4-0.2c-0.1,0.1-0.3,0-0.4,0s-0.3-0.2-0.4,0
		c-0.1-0.1-0.2-0.1-0.3-0.2h-0.1c-0.2,0.2-0.3,0.1-0.4,0.1c0,0-0.1,0.1-0.2,0.1c0.1,0,0.1,0.1,0.2,0.1c0,0.1,0,0.1,0.1,0.1
		c0,0,0,0-0.1,0c-0.2,0.1-0.4,0.1-0.6,0.1c0,0-0.1,0-0.1,0.1c-0.2,0.1-0.4,0.1-0.5,0.1c-0.2,0-0.4,0.1-0.5,0.1s-0.3,0-0.4-0.2
		c-0.2,0.1-0.4,0.2-0.4,0.2c-0.1,0.1-0.3,0-0.3,0c-0.1-0.1-0.2-0.1-0.4-0.1c-0.3,0-0.5-0.1-0.8-0.1c-0.1,0-0.3,0-0.4,0
		c0,0,0,0-0.1,0C98,55,97.6,55.1,97.3,55.1z M98.4,59c-0.2,0-0.3,0-0.4,0C98.2,59.2,98.3,59.2,98.4,59z M100.1,58.1
		c-0.1,0-0.2-0.1-0.4-0.1c-0.1,0-0.1-0.1-0.2-0.1c-0.3,0-0.4,0.2-0.5,0.4C99.4,58.2,99.7,58.2,100.1,58.1z M99.6,53.9
		c0,0.2-0.2,0.2-0.2,0.2C99.3,54,99.3,54,99.3,54C99.4,54,99.5,53.9,99.6,53.9z M99.7,51.4c0.1,0,0.2,0,0.3,0c0,0,0.1,0,0.1,0.1
		C100,51.5,99.8,51.5,99.7,51.4L99.7,51.4z M99.8,53.5c0.3-0.2,0.5-0.3,0.8-0.2c-0.1,0.1-0.3,0.2-0.3,0.2h-0.1
		C100,53.7,100,53.7,99.8,53.5z M100.7,51.3c-0.2,0.1-0.3,0.1-0.4,0.1v-0.1C100.4,51.4,100.5,51.4,100.7,51.3L100.7,51.3z M101,50.7
		c0.3,0,0.6,0,0.9,0.1c0,0,0,0.1,0.1,0.1c-0.1,0-0.2,0-0.2,0c-0.1,0-0.1,0-0.2-0.1c-0.2,0-0.4,0-0.4,0C101,50.9,101,50.8,101,50.7
		C101,50.8,101,50.7,101,50.7z M101.9,57c0.1,0.2,0.4,0.2,0.7,0C102.4,57,102.2,57,101.9,57z M102.2,50.9c0.2-0.1,0.4-0.1,0.3-0.4
		c0.4,0,0.8,0.1,1.2,0c0.1,0,0.2,0.2,0.2,0.2c0,0.1-0.1,0.1-0.2,0.1c-0.4,0-0.7,0.1-1.1,0.1C102.5,51,102.3,50.9,102.2,50.9z
		 M103,56.9L103,56.9c0.2,0,0.3,0,0.4,0c0-0.1,0-0.1,0-0.1c-0.1,0-0.2-0.1-0.2,0C103.1,56.8,103.1,56.8,103,56.9z M105,51.1
		c0,0.2-0.1,0.2-0.2,0.2c-0.3,0-0.5,0-0.8-0.1c-0.2,0-0.3,0-0.4,0c0,0-0.1,0-0.2,0c0.3-0.2,0.7-0.2,0.9-0.1c0.1-0.1,0.2-0.1,0.3-0.2
		c0,0,0-0.1-0.1-0.1l0.1-0.1c0,0.1,0.1,0.1,0.1,0.1C104.7,51.1,104.7,51.2,105,51.1z M103.8,57.9c0.4,0,0.7,0,1.1,0c0,0,0,0,0,0.1
		C104.5,57.9,104.2,58.1,103.8,57.9z M104.3,58.8c0.4-0.1,0.4-0.1,0.4,0C104.5,58.7,104.4,59.1,104.3,58.8z M104.5,50.6
		c-0.1,0-0.3,0-0.4,0v-0.1C104.3,50.6,104.4,50.6,104.5,50.6z M105.9,50.8L105.9,50.8c-0.1-0.1-0.2-0.2-0.4-0.2
		C105.6,50.8,105.6,50.8,105.9,50.8z M108.3,55.9c-0.1,0-0.2,0.1-0.2,0.1c-0.4,0-0.7,0-1.1,0.1c-0.2,0.1-0.4,0-0.5,0
		c0,0-0.1,0-0.1-0.1c0.4-0.1,0.6-0.2,1-0.2C107.6,55.8,107.9,56,108.3,55.9L108.3,55.9z M106.9,50.9c-0.2-0.1-0.4-0.4-0.6,0
		C106.5,50.9,106.7,50.9,106.9,50.9z M107,56.4c-0.2,0-0.3,0-0.4,0C106.8,56.3,106.9,56.3,107,56.4z M107.3,53.9
		c0.1-0.1,0.2-0.1,0.2-0.1v0.1C107.4,54,107.4,54,107.3,53.9L107.3,53.9z M109.4,54.7L109.4,54.7c0.1,0.1,0.2,0.1,0.3,0.1
		c0.1-0.1,0.2-0.2,0.3-0.3c0,0-0.1-0.2-0.2-0.2c-0.2,0-0.5-0.1-0.6,0.1c-0.1,0.1-0.1,0.1-0.2,0.1s-0.2,0-0.3,0c-0.1,0-0.3,0-0.3,0.2
		c0,0,0,0.1-0.1,0.1c0,0,0,0.1-0.1,0.1c0.1,0.1,0.2,0.1,0.3,0.1C108.7,54.9,109.1,54.8,109.4,54.7c0.1-0.1,0.1-0.1,0.2-0.1
		C109.5,54.6,109.5,54.7,109.4,54.7z M108.9,50.8C109,50.8,109,50.8,108.9,50.8c0.1-0.1,0.1-0.1,0.1-0.2c0,0,0,0-0.1,0
		C108.9,50.7,108.9,50.7,108.9,50.8z M109.5,55.2c-0.1-0.2-0.2-0.1-0.3-0.1v0.1C109.3,55.2,109.4,55.2,109.5,55.2z M112,57.2
		c-0.2,0.1-0.3,0.2-0.4,0.2c0,0.1-0.1,0-0.2,0h-0.1c-0.3,0-0.4,0.1-0.6,0.1s-0.4,0-0.5,0c0.1-0.1,0.2-0.2,0.3-0.3c0.1,0,0.2,0,0.2,0
		c0.2,0.1,0.3,0.1,0.4,0c0.2-0.1,0.3,0.1,0.4,0C111.6,57.2,111.8,57.2,112,57.2z M110.8,50.3L110.8,50.3c0.1,0.1,0.2,0.1,0.3,0.2
		c0.1,0,0.1-0.1,0.1-0.1s0-0.1-0.1-0.1C111,50.3,110.9,50.3,110.8,50.3z M112.1,54.4c-0.2,0-0.3-0.1-0.4,0c-0.2,0-0.3,0.1-0.3,0.1
		c-0.1,0-0.1,0.1-0.1,0.2c0.1,0,0.2,0,0.3,0c0.1,0,0.1,0,0.2,0s0.1,0,0.2,0.1c0-0.1,0-0.2,0.1-0.2c0,0.1,0.4,0.2,0.5,0.1
		c0.2-0.1,0.4-0.1,0.5,0c0,0.1,0.1,0,0.2,0h0.1c0.1,0,0.2,0,0.2,0v-0.1c-0.1,0-0.2-0.1-0.3-0.1c-0.1,0-0.1,0-0.2-0.1
		c-0.1,0-0.2,0-0.2,0c-0.2-0.2-0.3-0.2-0.4,0c0,0-0.1,0-0.2,0c0.1,0,0.1,0,0.1,0c0-0.1-0.1-0.2-0.1-0.2c-0.1,0-0.3,0-0.4,0
		C112,54.3,112,54.4,112.1,54.4z M112.5,55c-0.2,0.1-0.3,0.1-0.4,0.2c0.2,0,0.4,0,0.5,0C112.5,55.1,112.5,55.1,112.5,55z
		 M112.7,50.8C112.7,50.7,112.7,50.7,112.7,50.8c0-0.2,0-0.2-0.1-0.3c0,0-0.2,0-0.1,0.1C112.5,50.8,112.6,50.8,112.7,50.8z
		 M115.3,55L115.3,55c-0.1,0-0.2,0.1-0.3,0.1c-0.1,0-0.2-0.1-0.3-0.1c0,0.3,0,0.3,0.2,0.4c0.1,0,0.2,0,0.2,0c0.1,0,0.1,0,0.2,0.1
		c-0.1,0-0.2,0-0.3,0.1c-0.2-0.2-0.3-0.2-0.5-0.2c-0.2,0.1-0.4-0.1-0.5,0c0.2-0.1,0.3-0.2,0.3-0.4c0.1,0.1,0.1,0.1,0.1,0.1
		c0.1-0.2,0.3-0.3,0.5-0.2c0.1,0,0.1,0,0.2,0C115.3,54.8,115.3,54.9,115.3,55z M114.2,51.1c-0.1,0-0.1-0.1-0.2,0c-0.1,0-0.1,0-0.1,0
		l0.1,0.1C114.2,51.2,114.2,51.1,114.2,51.1z M115,55.1c0.1,0,0.2-0.1,0.2-0.1c0.1,0.1,0.2,0.1,0.2,0.2
		C115.3,55.2,115.2,55.2,115,55.1C115.1,55.2,115.1,55.1,115,55.1z M116.6,50.3c-0.1-0.1-0.2-0.1-0.3-0.2c0,0.1,0.1,0.2,0.1,0.3
		C116.5,50.3,116.5,50.3,116.6,50.3z M116.5,51.6c0.1,0,0.3,0,0.4,0l0.1,0.1C116.8,51.7,116.6,51.7,116.5,51.6z M117.5,51.7
		c-0.1,0-0.2-0.1-0.3-0.1c0-0.1,0-0.1,0.1-0.1s0.2,0,0.3,0C117.5,51.6,117.5,51.6,117.5,51.7z M118.1,50.3c-0.1,0.1-0.2,0.1-0.3,0.2
		c0.1,0.3,0.3,0.1,0.5,0.2v-0.1C118.2,50.5,118.1,50.4,118.1,50.3z M120.8,54.9c0.1,0.2,0.2,0.2,0.3,0.2c0-0.1,0.1-0.1,0.1-0.2
		C120.9,54.9,120.9,54.9,120.8,54.9z M121.8,50.7c-0.1-0.1-0.2-0.1-0.3-0.1c-0.1,0-0.1,0-0.2,0s-0.1,0-0.2,0
		C121.4,50.9,121.6,51,121.8,50.7z M121.5,54.3c0,0.2,0,0.2,0.3,0.3c0.1,0,0.2,0,0.2-0.1c0.1,0,0.1-0.1,0.2-0.2c0,0,0,0-0.1,0
		S121.8,54.3,121.5,54.3z M124.6,54.7c0.1,0.1,0.2,0.3,0.3,0.1h0.1c0.2,0,0.3,0.1,0.5,0.2c0,0,0.1,0,0.1-0.1c0.2,0,0.4-0.1,0.6-0.1
		h0.1c0.1,0.2,0.2,0,0.2,0c0.2,0.1,0.3,0.1,0.5,0.2c0-0.1,0-0.1,0-0.2c0.2,0,0.4,0,0.4-0.1c0.2-0.1,0.3-0.1,0.4-0.2
		c0-0.1,0-0.2-0.1-0.3c-0.1,0.1-0.2,0.1-0.3,0.2c0,0.1-0.1,0.1-0.2,0.2c-0.1,0-0.2,0-0.2,0c-0.2-0.1-0.3-0.1-0.4,0h-0.1
		c0-0.1-0.1-0.1-0.2-0.2c0,0,0,0,0-0.1c-0.1-0.1-0.2-0.1-0.3-0.1c0,0.1-0.1,0.2-0.2,0.2s-0.1,0.1-0.3,0c-0.1-0.1-0.3-0.1-0.4-0.1
		s-0.3,0.1-0.4,0.1c0-0.3-0.3-0.3-0.5-0.2c-0.1,0-0.2,0-0.3,0c0,0-0.1,0-0.2,0c0,0,0,0,0-0.1c0,0,0,0,0.1-0.1
		c-0.2-0.1-0.3-0.1-0.4,0.1c-0.1,0.1-0.2,0.1-0.4,0c0-0.1-0.2-0.1-0.3-0.2c0,0,0,0.1-0.1,0.2h-0.1c-0.2-0.2-0.2,0-0.3,0.1
		c-0.2,0.1-0.3,0.2-0.3,0.3s0.1,0.1,0.2,0.2c0,0,0.1,0,0.2,0c0-0.2,0.1-0.3,0.3-0.3c0.2,0,0.3,0.1,0.3,0.3c0.3,0,0.5,0.2,0.9,0
		c-0.1-0.1-0.2-0.1-0.3-0.1c0-0.1,0-0.1,0-0.2c0.1,0.1,0.2,0.2,0.2,0.1c0.2,0,0.4,0,0.5,0.2C124.4,54.9,124.5,54.8,124.6,54.7z
		 M122.2,50.6c0.3-0.1,0.3-0.1,0.3-0.2c-0.1,0-0.2,0-0.3,0C122.2,50.5,122.2,50.5,122.2,50.6z M122.9,55.6c-0.1,0.2-0.3,0.1-0.4,0
		C122.6,55.6,122.7,55.6,122.9,55.6z M124,50.9c-0.1,0-0.2-0.1-0.3-0.1c0,0-0.1,0.1-0.1,0.2c0.1,0,0.2,0.1,0.2,0.1
		C123.9,51,123.9,51,124,50.9z M124.5,51.9c-0.2,0-0.4,0-0.5-0.2c0,0,0,0-0.1,0c0,0,0,0-0.1,0c0.1-0.1,0.1-0.1,0.1-0.1
		c0.1,0,0.3-0.1,0.3,0.1C124.4,51.7,124.5,51.7,124.5,51.9z M124.4,50.8C124.4,50.8,124.4,50.7,124.4,50.8c-0.2-0.1-0.3-0.1-0.5-0.2
		c0,0.1,0.1,0.1,0.1,0.2c0,0,0.1,0.1,0.1,0.2C124.3,50.9,124.4,50.8,124.4,50.8z M124.3,51.5c0.1,0.1,0.4-0.1,0.5,0.1
		c0.1,0.1,0.2,0.1,0.3,0.1c0.1,0,0.2,0,0.4,0c-0.1,0.1-0.2,0.1-0.3,0.2C124.8,51.7,124.6,51.6,124.3,51.5z M124.7,51
		C124.7,51.1,124.7,51.1,124.7,51c-0.2,0.1-0.3,0.2-0.4,0.2v-0.1c0,0,0.1,0,0.1-0.1C124.5,51.1,124.6,51.1,124.7,51z M124.5,54.5
		c0.2,0,0.3-0.1,0.4,0.1c-0.1,0.1-0.2,0.1-0.3,0.1C124.6,54.6,124.6,54.5,124.5,54.5z M125.8,58c-0.2-0.1-0.3-0.1-0.4-0.1
		s-0.1,0.1-0.1,0.1c-0.2-0.1-0.3-0.2-0.5-0.2c0.3-0.1,0.5-0.2,0.7,0c0.2-0.1,0.3-0.2,0.4-0.2s0.2,0.2,0.4,0.1c0,0,0,0,0.1,0
		c0-0.1,0-0.1,0.4,0c-0.2,0.1-0.3,0.2-0.4,0.3l-0.1-0.1c-0.1,0-0.2,0-0.3,0.1C126,58.1,126,58.2,125.8,58L125.8,58z M126.3,51.7
		c0.2,0,0.4-0.1,0.5,0.1C126.6,51.8,126.5,51.7,126.3,51.7z M131.1,56.6c0.2,0,0.3-0.1,0.4-0.1c0.1,0,0.1,0,0.1,0
		c0.1,0.2,0.3,0.1,0.4,0.1c0.2,0,0.5,0.1,0.6-0.1c0.1,0.1,0.1,0.2,0.3,0.1c0.1-0.1,0.2-0.1,0.3-0.1c0.3,0.1,0.5,0.1,0.8,0.1
		c0.2,0,0.4,0,0.4,0c0.1,0,0.2,0.1,0.3,0.1c0,0.1,0.1,0.1,0.1,0.1c0.2-0.1,0.3-0.1,0.3-0.2c0.1,0,0.2,0,0.2,0.2
		c-0.2,0-0.4,0.1-0.4,0.1c-0.2,0-0.4-0.1-0.5-0.2c-0.1,0-0.2,0-0.3,0.1c-0.1,0-0.2,0-0.2,0c-0.3,0-0.5,0-0.8,0.1
		c-0.1,0.1-0.3,0-0.4,0c0,0.1-0.1,0.1-0.2,0.1c0,0-0.1,0-0.2,0c-0.2-0.1-0.4-0.1-0.5,0h-0.1c-0.2,0-0.4-0.1-0.4,0
		c-0.1,0.1-0.2,0-0.3,0c-0.3-0.1-0.5-0.2-0.6-0.2c-0.2,0-0.4-0.1-0.5,0c-0.1,0-0.3-0.1-0.5-0.1c-0.1,0-0.1,0.1-0.2,0.1
		c-0.2,0-0.3,0-0.4,0c-0.1,0-0.2,0-0.2,0c-0.2,0-0.4,0-0.5,0c-0.2-0.1-0.4-0.1-0.5-0.1c-0.3-0.1-0.5-0.1-0.7-0.1c0,0,0,0,0-0.1
		c0.1,0,0.2,0,0.3,0c0.1,0,0.2,0.1,0.2,0c0.2-0.1,0.4,0,0.5,0c0.1,0,0.3,0,0.4,0c0.2,0,0.4,0,0.6,0c0,0,0.1,0.1,0.1,0
		c0.2-0.2,0.3,0,0.4,0c0.2-0.1,0.4,0,0.5-0.1c0,0,0.2,0,0.3,0c0.1,0.1,0.3,0.1,0.4,0.1C131,56.4,131,56.3,131.1,56.6z M129.7,53.3
		c-0.2,0.2-0.3,0.3-0.6,0.2c-0.1,0-0.1,0-0.2,0c-0.1,0-0.2,0-0.3,0c-0.2,0-0.4,0-0.6,0c0,0,0,0,0-0.1c0.2,0,0.4,0,0.4,0
		c0.1,0,0.2,0,0.2-0.1c0.1-0.1,0.3,0.1,0.4,0c0,0,0.1,0.1,0.2,0.1C129.4,53.3,129.5,53.3,129.7,53.3z M128.6,51.7
		c-0.1,0.2-0.3,0.1-0.4,0.1c-0.1,0-0.1-0.1-0.1-0.2v-0.1C128.2,51.6,128.5,51.5,128.6,51.7z M128.2,55.6c0.3,0,0.5,0,0.7,0
		c0.1,0,0.2,0.1,0.3,0.1c-0.1,0.1-0.1,0.1-0.1,0.1c-0.1,0-0.3-0.1-0.5-0.1c0,0-0.1,0-0.2,0C128.4,55.6,128.3,55.7,128.2,55.6z
		 M128.5,51.1c0.2,0,0.3,0,0.4,0.1c0.1,0,0.3,0,0.4,0c0-0.1,0-0.2,0-0.2c-0.2,0-0.4-0.1-0.5-0.2C128.6,50.8,128.5,50.9,128.5,51.1z
		 M129.8,54.6C129.8,54.6,129.8,54.5,129.8,54.6c0.1-0.2,0.2-0.3,0.2-0.3c0-0.1-0.1-0.1-0.2-0.1c-0.2,0.1-0.4,0.1-0.5,0.1
		c-0.1,0.1-0.2,0.1-0.3,0c0,0-0.1,0-0.1,0.1c-0.1,0-0.1,0.1-0.2,0.2c0,0,0,0.1,0.1,0c0.1,0,0.2,0,0.2,0.1c0.1,0,0.2,0,0.3,0
		C129.4,54.5,129.6,54.6,129.8,54.6c0,0.1,0.1,0.3,0.3,0.3c0.1,0,0.3,0,0.4,0c0.1,0,0,0.2,0.2,0c0,0,0.1,0,0.2,0
		c0.2,0,0.3,0.1,0.5,0.1c0,0,0,0,0,0.1c0,0,0.1,0,0.2,0c0-0.1,0.1-0.2,0.1-0.2c0.2,0,0.4-0.1,0.5-0.1c0-0.1,0-0.1,0.1-0.2
		c-0.2-0.1-0.4-0.1-0.5-0.2c0.3,0,0.5,0.1,0.7-0.2c-0.3-0.1-0.6-0.1-1-0.1c0,0-0.1,0.1-0.2,0.1c0.1,0.1,0.2,0.2,0.3,0.2
		c-0.5,0.1-1,0.1-1.5,0.2C130,54.7,129.9,54.6,129.8,54.6z M129,51.6c0.1,0,0.1,0,0.2,0c0,0,0,0,0.1,0.1c0.2,0,0.4-0.1,0.5-0.1
		s0.2,0,0.3,0c0.3-0.1,0.5,0,0.8-0.1c0.3,0,0.4,0.1,0.5,0.2c0.2,0,0.4,0,0.5,0c0.2,0.1,0.5,0.1,0.6,0.2c0,0,0,0.1,0.1,0.1
		c-0.2,0-0.4-0.1-0.5-0.1c-0.3,0-0.5,0-0.8,0c-0.2,0-0.4,0.1-0.5-0.1c-0.2-0.1-0.4,0-0.5,0.1c-0.3-0.2-0.6,0.1-0.9,0.1
		c-0.1-0.1-0.2-0.1-0.3-0.2C129.1,51.7,129,51.7,129,51.6z M129.4,52.8C129.4,52.8,129.4,52.9,129.4,52.8c0,0.2-0.1,0.1-0.2,0.1
		c0,0-0.1,0-0.1-0.1C129.2,52.8,129.3,52.8,129.4,52.8z M129.4,52.8c0.1-0.1,0.2-0.1,0.4,0.1C129.6,52.9,129.6,52.9,129.4,52.8
		C129.4,52.9,129.4,52.8,129.4,52.8z M129.9,57.8c-0.1,0.1-0.3,0.2-0.4-0.1C129.8,57.8,129.9,57.8,129.9,57.8z M129.7,53.3
		c0.1-0.1,0.2-0.2,0.3-0.4c0.1,0,0.1-0.1,0.2-0.3c0.1,0,0.2,0,0.4,0c0,0.1,0,0.2,0,0.3c0.2,0,0.3,0,0.4,0c0.4-0.1,1.1,0,1.4,0.2
		c-0.2,0.2-0.4,0.1-0.6,0c-0.1,0-0.1,0-0.2,0.1c-0.1,0-0.1,0.1-0.3,0s-0.6,0-0.8,0.2c-0.1,0-0.3,0-0.4,0
		C129.8,53.3,129.8,53.3,129.7,53.3z M131.8,56.1c-0.5,0.2-1,0-1.5,0.1c0.3-0.1,0.4-0.2,0.7,0h0.1c0.1-0.1,0.2-0.1,0.3-0.1
		C131.6,56,131.8,56,131.8,56.1z M132.7,56.1c-0.3,0-0.5,0.1-0.8,0.1C132,56,132.6,55.9,132.7,56.1z M134.1,54.7
		c-0.2-0.3-0.4-0.2-0.5-0.2c-0.3-0.1-0.5,0-0.7-0.1c-0.3-0.1-0.5-0.1-0.8,0c0,0.3,0.2,0.2,0.3,0.3c0,0,0,0.1-0.1,0.2
		c0.2-0.1,0.4,0.1,0.5,0c0.3-0.3,0.4-0.3,0.7-0.2C133.8,54.7,133.9,54.7,134.1,54.7z M132.3,54c0.1,0,0.2,0,0.3,0
		c0-0.1-0.1-0.1-0.1-0.1C132.4,53.9,132.4,53.9,132.3,54z M132.8,55C132.8,55.1,132.8,55.1,132.8,55c0.2,0.1,0.3,0.1,0.4,0.1
		c0,0,0,0,0-0.1C133.1,55,133,55,132.8,55z M133.3,53.7c-0.2,0-0.3,0-0.4,0.1c0,0-0.1,0-0.1,0.1h0.1C133.1,54,133.2,53.9,133.3,53.7
		z M135.2,53.9c-0.1-0.2-0.3-0.3-0.5-0.2c-0.4,0.1-0.7,0.2-1.2,0.2c-0.1,0-0.1,0.1-0.2,0.1c-0.1,0.1-0.1,0.2,0,0.2
		c0.2,0.1,0.4,0.2,0.5,0.1c0.2-0.1,0.3-0.3,0.4-0.3c0.2-0.1,0.4-0.1,0.6-0.1C135.1,53.9,135.2,53.9,135.2,53.9z M144.8,57.6
		C144.8,57.6,144.7,57.6,144.8,57.6c-0.3,0.1-0.4,0.1-0.6,0.2c-0.4,0-0.9,0.1-1.3,0.1c-0.2,0-0.3,0.1-0.4,0.1
		c-0.1,0-0.2,0.1-0.4,0.1c-0.4,0-0.8,0-1.2,0.1c-0.4,0-0.8,0-1.2,0.1c-0.3,0.1-0.6,0-0.9-0.1c-0.2-0.1-0.3,0-0.4,0
		c-0.1,0-0.3,0-0.4,0c-0.2,0-0.3,0-0.4,0c-0.1,0-0.2,0-0.4,0c-0.1,0.1-0.2,0.1-0.3,0.1c-0.3,0-0.4,0.1-0.6-0.1c-0.1-0.1-0.3,0-0.4,0
		c-0.2,0-0.4,0-0.5-0.2c-0.2-0.2-0.4,0-0.6,0.1h-0.1c-0.1-0.2-0.3-0.2-0.5-0.1c-0.1,0-0.3-0.1-0.4-0.1c-0.1,0-0.2-0.1-0.3-0.1
		c0.2-0.1,0.3-0.2,0.4-0.3h0.1c0.1,0,0.2,0.1,0.2,0.1c0.1,0,0.2,0,0.2,0c0.1,0,0.2,0.1,0.3,0.1c0.2-0.1,0.4-0.1,0.4,0
		c0.2,0.1,0.4,0,0.4,0c0.3,0,0.5,0,0.8,0c0.1,0,0.2,0.1,0.2,0.1c0.4-0.2,0.9-0.1,1.3-0.1c0.4,0,0.7,0.1,1.2,0c0.4-0.1,1-0.1,1.4-0.2
		c0.3,0,0.5,0.1,0.7,0.1c0.1,0,0.2,0,0.2-0.1c0.1,0,0.2,0,0.2,0c0.3,0.1,0.5,0.1,0.6,0c0.4,0,0.9,0.1,1.3,0c0.4,0,0.6,0,0.9-0.1
		C144.6,57.6,144.7,57.6,144.8,57.6L144.8,57.6z M136.8,55.1L136.8,55.1c0.4-0.1,0.3-0.2,0.3-0.3c0.1-0.1,0.2-0.1,0.3-0.2v-0.1
		c-0.5-0.1-1.1,0-1.7-0.1c0.2,0,0.4,0,0.5,0l0.1-0.1v-0.1c-0.2,0-0.4-0.1-0.5-0.1c-0.3,0-0.5,0-0.7,0.1c-0.1,0-0.1,0-0.2,0
		c-0.1,0-0.3,0.1-0.4,0.1c-0.1-0.1-0.3-0.1-0.4,0c0.2,0.2,0.3,0.3,0.4,0.4c0.1,0,0.2,0.1,0.2,0c0.2,0,0.3,0,0.4-0.1
		c0.1-0.1,0.2-0.1,0.3,0c0.3,0,0.4,0,0.6,0.1c0.2,0,0.4,0,0.4,0c0.1,0,0.2,0,0.3,0C136.8,54.8,136.8,55,136.8,55.1
		c-0.1-0.1-0.3-0.1-0.4,0v0.1C136.6,55.1,136.7,55.1,136.8,55.1z M136.9,51.7c-0.3,0.2-0.6,0-0.9,0c-0.1,0-0.1,0-0.2,0
		c-0.2,0-0.4,0-0.7-0.1c0.1,0,0.1,0,0.2-0.1c0.2,0,0.4,0,0.6,0c0.1,0,0.3,0,0.4,0C136.5,51.6,136.7,51.6,136.9,51.7z M135.5,55.8
		c0.1-0.1,0.2-0.2,0.4-0.1c0.1,0.1,0.3,0,0.4-0.1c0.1,0,0.1,0,0.2,0c-0.1,0.1-0.1,0.3-0.2,0.3c-0.1,0-0.2-0.1-0.4-0.1
		C135.8,55.8,135.7,55.8,135.5,55.8z M137.5,56.5c-0.1,0.2-0.4,0.2-0.9,0.1C136.9,56.6,137.2,56.5,137.5,56.5z M136.6,50.9
		L136.6,50.9c0.1,0.1,0.2,0.2,0.3,0.2c0,0,0-0.1,0-0.2C136.7,50.9,136.6,50.9,136.6,50.9z M136.7,54.1c0.1,0.2,0.3,0.1,0.4,0
		C137,54,136.8,53.9,136.7,54.1z M137.5,51.4c-0.2,0-0.4,0-0.6,0c0-0.1,0-0.1,0-0.1C137,51.3,137.3,51.3,137.5,51.4
		C137.5,51.3,137.5,51.3,137.5,51.4z M139.3,50.7c-0.1,0-0.1,0-0.2,0c-0.3,0-0.5,0-0.7-0.1c-0.1-0.1-0.1-0.1-0.2-0.1
		c-0.3,0-0.4,0.1-0.7,0.1c-0.1,0-0.2,0-0.2,0c-0.1,0-0.1,0.1-0.2,0.1C137.9,50.9,138.6,50.8,139.3,50.7z M144.6,55
		C144.6,54.9,144.6,54.9,144.6,55c0-0.2,0-0.2-0.1-0.2c-0.2,0-0.3,0-0.5-0.2h-0.1c-0.3,0-0.4,0-0.7-0.1c-0.6,0-1.3,0.1-2,0.1
		c-0.1,0-0.1,0-0.2,0c-0.1-0.1-0.1-0.1-0.2-0.1c-0.4,0-0.7-0.1-1.1,0c-0.3,0-0.4,0-0.6,0c-0.3,0-0.5-0.1-0.7-0.1s-0.3,0.1-0.4,0.1
		c-0.1,0-0.2,0-0.3,0c-0.3-0.1-0.4,0-0.4,0.1c0.2,0.3,0.4,0.3,0.6,0.3c0.4-0.1,0.6-0.1,1-0.1c0.3,0.1,0.6,0.2,0.9,0.1
		c0.3,0,0.4-0.1,0.6,0c0.1,0.1,0.1,0.1,0.2,0c0.1,0,0.2,0,0.3,0c0.2-0.1,0.4-0.1,0.5-0.1s0.2,0.1,0.3,0.1s0.3,0,0.4,0
		c0.3,0,0.6-0.1,0.9,0c0.2,0,0.4,0,0.6,0C143.9,54.9,144.3,54.9,144.6,55z M137.8,57.3c-0.1,0-0.2-0.1-0.3-0.1c0,0,0-0.1,0.1-0.1
		s0.2,0,0.3,0C137.9,57.2,137.9,57.2,137.8,57.3C137.9,57.3,137.8,57.3,137.8,57.3z M138.9,52c0.3-0.3,0.7-0.2,1-0.2
		c-0.2,0.1-0.3,0.1-0.4,0.1c-0.1,0-0.1,0.1-0.2,0.1C139.2,52.1,139.1,52,138.9,52z M139.5,55.9c0.1-0.1,0.2-0.1,0.3-0.1v0.1
		C139.6,55.9,139.5,55.9,139.5,55.9z M140.1,57.2c0.5-0.1,1.1-0.2,1.6-0.3c-0.1-0.1-0.1-0.2,0.1-0.2c0.2,0,0.4-0.1,0.4-0.1
		c0.2,0,0.4,0,0.5-0.1h0.1c0,0.1,0.1,0.1,0.1,0.1l-0.1,0.1c-0.4,0-0.7,0.2-1,0.4c-0.1,0.1-0.3,0.1-0.4,0.1c-0.4,0.1-0.7,0.1-1.1,0.1
		C140.4,57.3,140.2,57.3,140.1,57.2C140,57.2,140,57.2,140.1,57.2z M140.2,52.1c0-0.2,0-0.2-0.1-0.3c0.1,0,0.2,0,0.3-0.1
		c0.3,0,0.5,0,0.7,0s0.4,0,0.5,0.1c0.2,0.1,0.5,0.2,0.7,0.1l0.1,0.1c0,0-0.1,0-0.1,0.1c-0.4,0.1-0.7,0-1.2,0
		C140.8,52.1,140.6,52.1,140.2,52.1C140.3,52.1,140.2,52.1,140.2,52.1z M141.4,56c0.2-0.1,0.4-0.1,0.5,0c0,0,0,0,0,0.1
		C141.8,56.1,141.6,56,141.4,56z M142,54.5c0.1,0,0.2,0,0.3,0v-0.1v-0.1c-0.2,0-0.3,0-0.4,0c0,0-0.1,0-0.2,0.1
		C141.8,54.4,141.9,54.5,142,54.5C141.9,54.5,141.9,54.5,142,54.5z M142.7,55.9c0.4,0.1,0.6,0,1,0.1
		C143.3,56.2,142.9,56.1,142.7,55.9z M149.5,56.8c-0.1,0-0.2,0-0.2,0.1c-0.1,0-0.2,0.1-0.2,0.1c0.1,0.1,0.1,0.1,0.2,0.2
		c0,0,0.1,0,0.2,0c0,0,0,0,0.1,0.1c-0.1,0-0.1,0-0.1,0c-0.2,0-0.4,0-0.5-0.1c-0.2-0.1-0.4,0-0.5,0c-0.4,0-0.6,0-0.9,0.1
		c-0.1,0-0.3,0-0.4,0.1c-0.1,0.1-0.2,0.1-0.3,0.1c-0.2-0.1-0.4-0.1-0.5-0.1s-0.1,0-0.2-0.1c-0.3-0.1-0.6,0-0.9,0.1
		c-0.1,0-0.3,0-0.4-0.1c-0.2,0-0.5-0.1-0.7-0.1h-0.1c-0.3,0-0.4,0-0.6-0.1c-0.1,0,0,0,0-0.1c0.4,0,0.7-0.1,1.1,0
		c0.2,0,0.4,0,0.5-0.1c0.4-0.1,0.6-0.1,0.9-0.1c0.3,0,0.6,0,0.9,0c0.2,0,0.4,0,0.4,0c0.4,0,0.6,0,0.9,0c0.2,0,0.3-0.1,0.4-0.1
		C149.1,56.8,149.4,56.7,149.5,56.8C149.5,56.7,149.5,56.7,149.5,56.8z M144.3,56c-0.2,0-0.3,0-0.4,0C144,56.1,144.1,56.1,144.3,56z
		 M146.6,58.9c-0.1-0.2-0.4-0.3-0.5-0.2c-0.2,0.1-0.4,0.1-0.5,0h-0.1c0,0,0-0.1,0-0.2c-0.3,0-0.5,0-0.7-0.1c0.2-0.2,0.4,0,0.6,0
		c0.1,0,0.2,0,0.3,0c0.4,0,0.6,0,1,0c0.3,0,0.5,0.1,0.7,0.1s0.4,0,0.4-0.1c0.1,0,0.2,0,0.3,0.1c0.1,0,0.2,0,0.3,0
		c0.2,0,0.4-0.1,0.6-0.1c0.1,0,0.2-0.1,0.3,0.1c0.4,0,0.7,0,1,0c0.2,0,0.4,0.1,0.5,0.1c-0.4,0.2-0.7,0.2-1.1,0.2
		c-0.2,0-0.4,0-0.5,0.2c-0.1,0-0.2,0-0.2,0c-0.2-0.1-0.4-0.2-0.5,0c-0.1,0-0.2,0-0.3,0c-0.4,0-0.7,0-1.1,0
		C146.8,58.8,146.7,58.9,146.6,58.9z M147,54.9c-0.2,0-0.4,0-0.5,0c-0.4-0.1-0.7-0.1-1.2-0.1c-0.1,0-0.3,0-0.4,0l-0.1,0.1
		c0,0.1,0.1,0.1,0.1,0.2c0.2,0,0.3,0,0.5,0.1c0.1,0,0.3,0,0.4,0c0.1,0,0.1,0,0.2,0.1h0.1c0.3,0.1,0.5,0.1,0.7,0.1c0,0,0,0,0,0.1
		c0.1,0,0.2,0.1,0.3,0.1c0.3,0,0.6,0,0.9,0c0.2,0,0.3-0.1,0.5,0.1c0,0,0.1,0,0.2,0c0.2,0,0.4-0.1,0.6,0c0.2,0,0.4,0,0.5,0
		c0.7,0,1.4,0,2.2,0c0.2,0,0.4,0,0.5,0.1c0.2,0.2,0.4,0.1,0.5,0.1s0.2,0,0.2,0c0.5,0.2,0.9,0.1,1.2-0.1c0.1,0,0.3,0,0.4-0.1
		c-0.1-0.1-0.2-0.1-0.4-0.1v-0.1c0.2,0,0.3,0,0.4,0c0-0.1,0-0.1,0-0.1c-0.1-0.1-0.2-0.1-0.2-0.1c-0.2,0-0.3,0-0.4,0.1
		c-0.1,0-0.2,0-0.2,0c-0.1-0.1-0.2,0-0.3,0c-0.3-0.1-0.6-0.2-0.9-0.1c-0.3,0-0.6,0-0.9,0h-0.1c0.1-0.1,0.1-0.1,0.2-0.1
		c-0.1-0.1-0.1-0.1-0.2-0.1c-0.4,0-0.6,0-1,0c-0.2,0-0.3,0-0.4-0.1c-0.3-0.2-0.5-0.2-0.9-0.1V55c0,0,0.1,0.1,0.2,0.2
		c-0.2-0.1-0.3-0.1-0.5-0.1c-0.3,0-0.5,0-0.7,0.1c-0.4,0-0.8,0-1.2,0C147.1,55.1,147,55,147,54.9z M146.1,52.2
		c-0.3,0.2-0.5,0.1-0.7,0.1c0,0,0.1,0,0.2-0.1c0,0,0.1,0.1,0.1,0C145.8,52.1,145.9,52.2,146.1,52.2z M147.4,54.8c0-0.1,0-0.1,0-0.2
		c-0.1,0-0.2,0-0.3,0c0,0,0,0,0,0.1C147.2,54.8,147.3,54.8,147.4,54.8z M148.3,51.8c-0.3,0-0.4,0-0.7-0.1
		C147.7,51.6,148.2,51.6,148.3,51.8z M156.7,57.4c0-0.1,0-0.1,0-0.2c0.3,0,0.5,0.1,0.7,0.1c-0.1,0.1-0.1,0.2-0.2,0.3
		c0,0,0,0-0.1,0.1c-0.4,0-0.6,0-1,0c-0.2,0-0.3,0-0.4,0c-0.2,0-0.3,0-0.4,0.1c-0.2,0-0.3,0-0.5-0.1c0-0.1-0.2-0.1-0.3-0.1
		c-0.2,0-0.4,0-0.7,0c0,0-0.1,0-0.2-0.1c-0.1,0-0.1,0-0.2,0c-0.4,0.1-0.8,0-1.3,0.1c-0.4,0-0.7-0.1-1.1,0c-0.2,0-0.4-0.1-0.5-0.1
		c-0.2,0-0.4,0-0.5-0.1c0,0.1,0,0.1,0,0.1c0.1,0.1,0.3,0.1,0.5,0.2c-0.5,0.1-2.3,0-2.7-0.2c0.3,0,0.5,0,0.9,0c0.2,0,0.5,0.1,0.7,0.1
		c0.1,0,0.3,0,0.5,0.1c0-0.1,0-0.1,0-0.1c0-0.1,0.1-0.1,0.2-0.2v-0.1c0-0.1,0-0.2,0.1-0.2c0.2,0,0.3,0.1,0.4,0.2c0.1,0,0.2,0,0.2,0
		c0.4,0.1,0.6,0.1,0.9-0.1c0.1,0,0.1-0.1,0.1-0.1c0.1,0,0.2-0.2,0.2-0.2c0.2,0,0.3,0.1,0.5,0.1c0.1,0,0.2,0,0.4,0.1
		c0.1,0,0.2,0,0.4,0.1c0.1,0,0.2,0.1,0.3,0.1c0.2,0.2,0.5,0.2,0.6,0.2c0.4,0,0.8,0,1.2,0c0.1,0.1,0.2,0,0.3,0.1c0.2,0,0.4,0,0.5,0
		s0.1,0,0.1,0C156.2,57.7,156.5,57.4,156.7,57.4z M148,56c0,0.2,0.1,0.2,0.3,0.1C148.2,56,148.1,56,148,56z M150.4,51.8
		c-0.3,0.2-0.5,0.1-0.6-0.1C150,51.9,150.2,51.9,150.4,51.8z M150.7,52.4c0,0.2-0.2,0.2-0.3,0.2C150.4,52.5,150.6,52.5,150.7,52.4z
		 M150.8,51.9c0.4,0,0.7,0,1.1,0c0,0,0,0,0,0.1C151.5,52,151.1,52,150.8,51.9L150.8,51.9z M151.9,57.2L151.9,57.2
		c0.3,0.1,0.5,0.2,0.6,0.2s0.1-0.1,0.2-0.1c-0.1,0-0.1-0.1-0.1-0.1C152.3,57.1,152.1,57.1,151.9,57.2z M153.1,52L153.1,52
		c-0.3,0-0.4,0-0.7,0C152.7,52,152.9,52,153.1,52z M153.7,52.5c-0.1,0.2-0.3,0.2-0.4,0C153.4,52.5,153.6,52.5,153.7,52.5z
		 M154.1,56.2c0,0.2,0.1,0.2,0.2,0.2c0,0,0-0.1,0.1-0.1C154.3,56.3,154.2,56.3,154.1,56.2z M154.8,55.4c0.2,0,0.3-0.1,0.4-0.1
		c0.1,0,0.1-0.1,0.1-0.1l-0.1-0.1c-0.2,0-0.3,0-0.4,0.1C154.7,55.3,154.7,55.3,154.8,55.4c0,0,0,0.1,0,0.2c0,0.2,0.1,0.3,0.3,0.3
		c0.1,0,0.3,0,0.4,0c0.1,0,0.3,0,0.4,0c0.1,0,0.1,0,0.2,0.1c-0.1,0-0.1,0-0.2,0.1c0.1,0,0.3,0.1,0.4,0.1c0.3,0,0.6,0,0.9,0
		c0,0,0.1,0,0.2,0c0-0.3,0-0.3-0.3-0.3c-0.4-0.1-0.6-0.1-0.9-0.1c-0.2-0.1-0.4-0.1-0.5-0.2C155.3,55.5,155.1,55.5,154.8,55.4z
		 M156.2,52.9c-0.3-0.1-0.5-0.1-0.8-0.1l-0.1-0.1l0.1-0.1c0.3,0.1,0.5,0.1,0.7,0.1L156.2,52.9L156.2,52.9z M156.1,55.4L156.1,55.4
		L156.1,55.4c0.4,0.2,0.6,0.2,0.8,0.2c0.1,0,0.3-0.1,0.4-0.1c0,0,0-0.1,0.1-0.2c-0.1,0-0.1,0-0.2,0c0,0-0.1,0-0.2,0
		c-0.2,0-0.4,0-0.6,0C156.3,55.4,156.2,55.4,156.1,55.4z M157.3,52.9c-0.1,0-0.2,0-0.3,0c0,0.1-0.1,0.1-0.1,0.1
		c-0.2,0.1-0.4,0.1-0.5,0C156.7,52.9,157,52.9,157.3,52.9L157.3,52.9z M157.5,55.9C157.5,56,157.5,56,157.5,55.9
		c0.2,0.1,0.4,0.1,0.5,0.2h0.1c0.1,0.2,0.3,0.1,0.5,0.1c0.1,0,0.4,0.1,0.5,0.2c0.2,0.1,0.5,0.1,0.7-0.1c-0.2,0-0.4-0.1-0.5-0.1
		c0-0.2,0.1-0.3,0.2-0.3c0.2,0.1,0.4,0.1,0.5,0.1s0.2,0,0.1-0.1c-0.1-0.1-0.2-0.1-0.3-0.2c-0.1-0.1-0.4,0-0.5,0.1
		c0,0.1-0.1,0.1-0.1,0.1c-0.3,0-0.5,0-0.8,0c-0.1,0-0.1,0-0.2,0C157.9,55.8,157.7,55.8,157.5,55.9z M158.1,53.2
		c-0.1,0-0.3,0-0.4-0.1c-0.1,0-0.1-0.1-0.2-0.1c0.1-0.1,0.2-0.1,0.2-0.1c0.2,0,0.4,0.1,0.6,0C158.3,53,158.1,53,158.1,53.2z
		 M157.6,55.2c0.5,0.2,0.5,0.2,0.6,0C157.9,55,157.7,55,157.6,55.2z M159.9,56.6L159.9,56.6c-0.1-0.1-0.2,0-0.3,0c0,0,0,0,0,0.1
		C159.8,56.7,159.8,56.6,159.9,56.6z M160.5,56c-0.2,0-0.4-0.1-0.4,0.1c0,0.1,0,0.1,0,0.2c0.1,0,0.2-0.1,0.3-0.1
		C160.5,56.2,160.5,56.1,160.5,56c0.1,0,0.2,0,0.4,0c0,0,0-0.1,0.1-0.1c-0.1,0-0.1-0.1-0.1-0.1c-0.2,0-0.3,0-0.4,0
		C160.4,55.9,160.5,55.9,160.5,56z M161.4,56.5c-0.1,0.1-0.1,0.2,0.1,0.2c0.1,0,0.1,0,0.2,0.1c0.2,0,0.4-0.1,0.5,0.1
		c0,0.1,0.1,0.1,0.1,0.1c0.1,0,0.1,0,0.2,0c0.1,0,0.3,0,0.4,0c0,0,0,0,0-0.1c-0.3,0-0.4,0-0.6-0.1c0.2,0,0.2-0.1,0.2-0.3
		c0.1,0,0.2,0,0.4-0.1c-0.2-0.2-0.5-0.1-0.5-0.1c-0.3-0.1-0.5-0.1-0.7-0.1h-0.1C161.4,56.3,161.4,56.3,161.4,56.5
		C161.4,56.4,161.4,56.4,161.4,56.5z M163.3,55.2c0,0-0.1-0.1-0.2-0.2c0,0.1,0,0.3,0,0.3C163.2,55.3,163.3,55.2,163.3,55.2z
		 M164.2,55L164.2,55l-0.1-0.2c-0.3-0.2-0.4,0-0.6,0c-0.1-0.1-0.1,0-0.2,0c0.1,0.1,0.1,0.1,0.2,0.2l0.1,0.1
		C163.7,55.1,164,55,164.2,55z M163.6,53.3c-0.1,0-0.2,0-0.3,0C163.4,53.5,163.5,53.4,163.6,53.3z M164,56.5c-0.1,0-0.1,0-0.2,0.1
		c0.1,0,0.1,0.1,0.2,0.1c0.1,0.1,0.2,0.1,0.3,0.1h0.1c0-0.1,0-0.2-0.1-0.2C164.2,56.5,164,56.5,164,56.5z M163.9,54.4
		c0.2,0.1,0.3,0.2,0.5,0.2s0.4,0,0.6-0.1v-0.1c0,0,0-0.1-0.1-0.1c0,0-0.1,0-0.2,0c-0.2,0-0.4,0.1-0.6,0.1c0-0.1,0-0.1,0-0.2
		C164,54.3,164,54.3,163.9,54.4z M164.1,55.4c0.1,0,0.2,0,0.3,0s0.2,0.1,0.3,0.1s0.1-0.1,0.1-0.1c0-0.1,0-0.1,0-0.2
		c-0.1,0-0.2-0.1-0.3-0.1c0,0-0.1,0.1-0.2,0.1C164.3,55.3,164.2,55.3,164.1,55.4z M165.3,55.7L165.3,55.7c-0.1-0.1-0.2-0.1-0.3,0.1
		C165.1,55.7,165.2,55.7,165.3,55.7z M165.4,52.4c-0.1-0.2-0.2-0.1-0.4,0C165.2,52.5,165.3,52.4,165.4,52.4z M166,55.1
		C166,55,165.9,55,166,55.1c-0.4-0.3-0.5-0.2-0.7-0.1c-0.1,0.1-0.1,0.1-0.1,0.2c0.2,0,0.3,0,0.4,0C165.6,55.3,165.9,55.2,166,55.1z
		 M165.7,56.5c-0.2,0-0.3-0.1-0.4,0.1C165.4,56.6,165.6,56.7,165.7,56.5z M166.7,55.4c0.1,0.2,0.2,0.3,0.3,0.3s0.1-0.1,0.1-0.1
		c0.1-0.1,0-0.1-0.1-0.1C166.9,55.4,166.8,55.4,166.7,55.4z M168.7,57c-0.1,0.1-0.1,0.1-0.2,0.1C168.6,57.1,168.7,57.1,168.7,57
		c0,0,0-0.1-0.2,0C168.6,57,168.6,57,168.7,57z"/>
	<g>
		<path class="st0" d="M132,43.7c-0.7,0-1.4-0.2-2.2-0.6c-1.1-0.6-1.7-1.5-1.7-2.7c0-2.3,1.1-7.7,3.2-16L132,22
			c0.4-1.4,0.6-2.3,0.6-2.8c0-0.4-0.1-0.9-0.3-1.4s-0.3-0.9-0.3-1.2l0,0c0-0.5,0.4-1.1,1.1-2c0.8-1,1.8-1.5,2.9-1.5
			c0.3,0,0.6,0,0.8,0.1c0.1,0,0.4,0.5,0.9,1.3c0.8,1.4,1.1,2,1.1,1.8l0,0c0,0-0.5,0.8-1.4,2.4c-1,1.7-2.2,4.4-3.5,8
			c-1.3,3.9-2,7.6-2,11.1c0,0.4,0.1,1.1,0.2,2c0.1-0.2,0.7-0.9,1.6-2.1c0.7-1,1.3-1.7,1.8-2.2c0.3-0.2,0.5-0.3,0.5-0.3
			c0.1,0,0.1,0,0.1,0c-0.1,0.2-0.3,0.5-0.4,0.9c-0.2,0.4-0.3,0.7-0.4,0.9c-0.2,0.3-0.6,0.9-1.4,1.8c-0.6,0.7-1,1.4-1.1,1.9
			c-0.1,0.4-0.2,0.8-0.3,1.5l-0.2,1.6H132V43.7z M129.2,38.1c0.2,0,0.3-0.6,0.5-1.8c0.4-3.1,1-6.5,2-10.2c0.5-1.9,0.8-3.2,0.9-4
			c0.1,0,0,0-0.1-0.1v0.2c-0.1,0.2-0.2,0.5-0.2,0.9l-0.1,0.9c-0.1,0.1-0.1,0.3-0.3,0.5s-0.3,0.4-0.3,0.5c-0.6,1.7-1.2,4.6-1.8,8.6
			l-0.4,3.4c-0.2,0.5-0.2,0.8-0.2,0.9C129.2,38,129.2,38,129.2,38.1L129.2,38.1z M130.3,35.3c0.2-1,0.6-2.7,1.1-5.2
			c0.5-2.3,0.9-4,1.2-5.2c-0.6,0.5-1.1,2.3-1.7,5.5c-0.5,2.6-0.7,4.2-0.7,4.7L130.3,35.3L130.3,35.3z M131.1,34.8
			c0.1-0.5,0.2-1.5,0.6-3c0.2-1.2,0.4-2.2,0.5-2.9c-0.7,3.9-1,5.7-1,5.5v0.4C131.2,34.8,131.1,34.8,131.1,34.8z"/>
		<g>
			<path class="st0" d="M106.1,34.6c0,0.2,0,0.6-0.1,1.1s-0.1,0.9-0.1,1.2c0,0.6,0.2,1.1,0.7,1.6c-0.1,0.4-0.1,0.9-0.1,1.3
				c0,1,0.2,2.1,0.5,3.3c0.1,0.2,0.5,0.9,1.2,2c0.6,0.9,0.9,1.7,0.9,2.4s-0.3,1.2-0.9,1.7c-0.5,0.4-1.1,0.6-1.7,0.6
				c-1.3,0-5.1-3.9-11.5-11.6c-1.8-2.2-2.7-3.3-2.5-3.1c-0.1-0.1-0.4-0.3-0.9-0.6c-0.4-0.3-0.6-0.5-0.7-0.6l-0.6-1.1
				c-0.2-0.2-0.6-0.5-1.1-0.9c-0.5-0.3-0.9-0.6-1-0.9c-0.7,0.3-1.5,0.8-2.4,1.4l-2.4,1.5c-0.5,1.5-0.7,2.7-0.7,3.4h0.1
				c0.1,0,0.4-0.1,0.7-0.3c0.4-0.2,0.7-0.3,0.9-0.3h0.1l0.1,0.1c0-0.2-0.4,0.2-1.2,1.3c0,0.3-0.2,0.6-0.5,1
				c-0.4,0.4-0.6,0.7-0.7,0.9c0.1-0.3-0.2,1.3-1.1,4.8l-0.3,1.6c-0.1,0.7-0.3,1.3-0.4,1.7c-0.4,1.3-0.9,2-1.6,2.1h-0.1
				c-1.1,0-2-0.3-2.6-0.9c-1.5-1.5-2.3-3.2-2.3-5v-0.1c0,0,0.6-1.1,1.7-3.3C81.9,28.3,85,20,85,15.8c-4.1,2.2-6.2,4.4-6.2,6.7
				c0,0.1,0,0.4,0.1,0.7c0.1,0.3,0.1,0.6,0.1,0.7v0.2c0,0.5-0.5,1-1.4,1.4C76.8,25.9,76,26,75.2,26h-0.1c0.3,0-0.3-0.2-1.8-0.9
				L72.2,25c-0.5,0-0.9-0.1-1.1-0.2c-0.7-0.3-1.5-0.8-2.4-1.6c-1.1-0.9-1.8-1.4-2.1-1.6v-0.3c0-0.3-0.1-0.6-0.3-1.1
				c-0.2-0.5-0.3-0.9-0.3-1.1l1.3-2.3c2.1-3.5,6.8-7.2,14-11.2c6.2-3.4,11.8-5.2,17-5.2c5.5,0,9.3,1.4,11.6,4.2
				c1.4,1.7,2.1,3.6,2.1,5.9c0,2.1-1.2,4.4-3.6,6.8c-2.5,2.5-8.2,6.5-17.2,11.8c0.8,0.6,2.6,2.1,5.4,4.4c2.2,1.8,4.1,3.3,5.5,4.3
				c2.2-7.2,4.4-12,6.7-14.4c0.1,0.4,0.1,0.6,0.1,0.7c0-0.1-0.5,0.9-1.6,3c-0.1,0.1-0.4,1.6-0.9,4.3l-0.4,1
				c-0.2,0.4-0.3,0.8-0.3,1.1L106.1,34.6z M82.8,26.2c10.1-6.8,15.9-10.8,17.3-12c2.6-2.1,4.2-3.6,4.8-4.4c0.7-0.9,1-2,1-3.3
				c0-2.2-1.2-3.3-3.6-3.3c-2,0-6.6,1.7-13.8,5.2l-7.2,18.1c0.2-0.2,0.5-0.8,0.9-1.7c0.4-0.9,0.8-1.5,1.2-1.8
				c-0.1,0.3-0.3,0.9-0.6,1.7l-0.6,1.7c0,0,0,0.1,0.1,0.1c0,0,0.1,0,0.2-0.1L82.8,26.2z"/>
			<path class="st0" d="M126.6,36.5c0,0.1,0.1,0.2,0.2,0.2c0.1,0.1,0.1,0.1,0.1,0.1v0.1c-6.4,3-10,4.6-10.6,4.9
				c-2.2,0.8-3.5,1.1-3.9,1.1c-1.4,0-2.4-0.9-2.9-2.7c0-0.1,0-0.1,0-0.1l0.2,0.1c-0.4-0.7-0.6-1.6-0.6-2.6c0-0.8,0.1-1.9,0.4-3.2
				c0.3-1.6,0.5-2.6,0.5-2.9v-0.1c0-0.1,0-0.1,0.1-0.2c0.1,0,0.1-0.1,0.1-0.1v-0.2c0-0.7,0.3-1.4,0.8-1.9v-0.5
				c1.5-3.2,2.8-5.1,3.8-5.6c0.7-0.3,1.3-0.5,1.8-0.5c1,0,2.2,0.6,3.4,1.8c1.6,1.5,2.5,2.3,2.9,2.5c0,0.1,0.1,0.2,0.2,0.3
				c0.1,0.1,0.1,0.2,0.2,0.3c-0.2,0.3-0.3,0.6-0.3,0.9c0,0.2,0.1,0.5,0.2,1s0.2,0.8,0.2,1.1v0.2c-0.1,0.8-0.7,1.4-1.9,1.9
				c-0.4,0.2-0.9,0.3-1.5,0.5c-0.8,0.2-1.3,0.4-1.4,0.5c-1.9,0.7-3.1,1.2-3.6,1.6c-0.1,0-0.2,0.1-0.4,0.4c-0.2,0.2-0.4,0.4-0.5,0.4
				c-0.3,0.1-0.5,0.2-0.8,0.2c-0.4,0-0.6-0.1-0.8-0.2c0.1,0.1,0-0.2-0.3-0.7c-0.1-0.1-0.2-0.3-0.5-0.4c-0.2-0.1-0.4-0.2-0.4-0.3
				c-0.4,1.6-0.5,2.5-0.5,2.9c0,1,0.5,1.6,1.4,1.6c2.8,0,6-1.1,9.7-3.4c-0.1-0.1-0.3-0.1-0.6-0.1s-0.7,0.1-1.3,0.2
				c-0.6,0.1-1.1,0.2-1.4,0.2c-0.1-0.1-0.3-0.2-0.5-0.2l-0.9,0.1c0.6-0.3,2.7-0.9,6.3-1.8l2.2-0.6c0.3,0,0.5,0,0.8,0.1
				c-0.1-0.1,0.2,0.5,0.9,1.5C127.4,35,127.1,35.4,126.6,36.5L126.6,36.5z M117.8,26c-1-1.8-1.4-2.6-1.3-2.5c-1,0.1-1.9,0.9-2.7,2.4
				c-0.2,0.4-0.5,1-0.8,1.8s-0.6,1.4-0.7,1.7c0.7-0.1,1.5-0.3,2.7-0.6l2.7-0.6c0.1-0.4,0.3-0.8,0.5-1c-0.3-0.2-0.5-0.4-0.5-0.7
				c0-0.1,0-0.1,0.1-0.2C117.8,26.2,117.8,26.2,117.8,26L117.8,26z"/>
			<path class="st0" d="M144.3,39.4c-0.8,0.8-1.5,1.5-2,2c-0.9,1-1.7,1.4-2.2,1.4c-0.3,0-0.7,0-1.4-0.1c-0.3-0.1-0.7-0.6-1.2-1.4
				c-0.1-0.2-0.4-0.5-0.9-0.8s-0.8-0.6-0.9-0.9c0.1-0.1,0.1-0.1,0.1-0.3l-0.1-0.7c0-2.1,1.2-4.9,3.6-8.5c-0.2,0.1-0.5,0.5-0.8,1
				c-0.4,0.6-0.7,1-0.8,1.1c0.2-1,0.7-1.8,1.4-2.5c0.4-1.3,1.3-2.6,2.9-4.1c1.8-1.7,3.5-2.6,5.2-2.6c0.5,0,1.5,0.2,2.9,0.7
				c0.7,0.8,1.4,1.4,2,1.7c-0.1,0.2-0.1,0.4-0.1,0.5c0,0.3,0.1,0.6,0.3,1s0.3,0.7,0.3,0.9c0,0.3-0.4,1.1-1.3,2.3
				c-0.8,1.3-1.3,2-1.3,2.2c-0.9,1.9-1.4,3.9-1.4,6.3c0,0.8,0.1,1.5,0.3,2c0.4-0.2,1-0.8,1.8-1.8l0.4-0.4c0.2-0.1,0.3-0.3,0.4-0.4
				c0.2-0.2,0.4-0.6,0.6-1l0.6-1.1c1.2-2,2.4-4,3.8-6c-1,3.2-2.2,5.9-3.7,8.1c0,0.1-0.1,0.1-0.2,0.2c-0.1,0.1-0.2,0.1-0.2,0.2
				c-0.1,0.1-0.1,0.2-0.1,0.3L152,39c-0.2,0.4-0.6,1-1.2,1.6c-0.8,0.8-1.4,1.2-1.9,1.2c-0.6,0-1.2-0.3-1.7-0.9
				c0.1,0.1-0.3-1-1.1-3.4C145.8,37.9,145.2,38.5,144.3,39.4z M147.5,27.5c0-0.2,0-0.4,0.1-0.5c-0.3-0.2-0.6-0.3-1-0.3
				c-0.2,0-0.6,0.1-1.1,0.2s-0.9,0.2-1.2,0.2c-2.4,1.1-4.3,2.9-5.6,5.2c-1,1.8-1.5,3.4-1.5,5c0,0.8,0.1,1.5,0.4,2.1l0.4,0.1
				c0.8,0,2.2-1.2,4.3-3.5c2.3-2.6,4-5.1,5.2-7.6L147.5,27.5z"/>
			<path class="st0" d="M159.1,39.5c1.2-1.9,2.2-3.5,3-4.7c0.7-1,1-1.5,1-1.5c0-0.3-0.4-1-1.3-2c-1-1.1-1.8-1.7-2.6-1.8h-0.9
				c-0.5,0-1.2-0.3-2-0.9c-1-0.7-1.4-1.3-1.4-2c0-0.8,0.7-1.8,2-3.1c1.1-1.1,2-1.6,2.7-1.6h0.1c0,0,0.8,0.5,2.3,1.5
				c0.2,0.2,0.3,0.6,0.4,1.1c0.1,0.6,0.1,1,0.2,1.1c0.1,0.1,0.1,0.3,0.3,0.5c0.1,0.2,0.2,0.3,0.2,0.4c0.1,0.2,0.1,0.4,0.2,0.6
				c0,0.4,0.1,0.6,0.1,0.7c0.1,0.4,0.3,1,0.6,1.7c0.3,0.8,0.5,1.4,0.6,1.8c0.4-0.9,1.3-2.4,2.5-4.5c1.1-1.9,1.9-3.4,2.4-4.5
				c0-0.1-0.1-0.3-0.3-0.5c-0.1-0.2-0.2-0.4-0.2-0.5l0,0c0-0.4,0.3-0.7,0.8-1c0.7-0.3,1-0.6,1.1-0.8c0.5-0.1,0.9-0.1,1.3-0.1
				c1,0,1.8,0.2,2.4,0.7c0.1,0.9,0.2,1.8,0.2,2.6V23c-0.2,0.3-0.7,0.7-1.7,1.3c-0.2,0.4-0.6,0.8-1.1,1.4c-0.6,0.7-1,1.1-1.2,1.4
				c-2.1,2.6-3.1,3.9-3,3.8c0,0.2,0,0.4,0.1,0.6c-0.3,0.1-0.8,0.7-1.4,1.8c-0.1,0-0.1,0-0.1-0.1s0.1-0.2,0.2-0.3
				c0.1-0.2,0.2-0.3,0.2-0.4c-0.6,0.6-1.8,2.4-3.6,5.3c0.2-0.2,0.5-0.7,1-1.4c0.4-0.6,0.8-1,1-1.4c-3.8,6.2-5.8,9.6-6.1,10.3
				c0,0-0.1,0-0.2,0c-0.1,0-0.2,0-0.2,0.1c-0.1,1-0.5,1.7-1.4,2c-0.1-0.2-0.4-0.4-1-0.8c-0.5-0.3-0.7-0.6-0.7-0.9L159.1,39.5z
				 M156,44.9c0,0.1-0.1,0.2-0.1,0.3c-0.1,0.1-0.2,0.2-0.2,0.3c0.1,0,0.3-0.2,0.6-0.5h-0.1C156.1,44.9,156.1,44.9,156,44.9L156,44.9
				z M158.4,44.6c1.7-3.1,3.8-6.6,6.3-10.6c-2.1,3.1-4.4,6.8-6.7,11.1c-0.4,0.2-0.6,0.5-0.6,0.8c0,0.1,0,0.1,0,0.1
				C157.6,45.9,157.9,45.4,158.4,44.6z M158.3,43.1c-0.2,0.4-0.4,0.7-0.4,0.9c0.6-0.8,1-1.3,1-1.7L158.3,43.1z M160.5,39.5
				c0.3-0.5,0.7-1,1.1-1.5C161.1,38.2,160.7,38.7,160.5,39.5z"/>
		</g>
	</g>
	<g>
		<g>
			<path class="st0" d="M15.1,30.1c-1.7,0-2.5,1.1-2.5,3.2V36c0,2.2,0.9,3.2,2.5,3.2c1.7,0,2.5-1.1,2.5-3.2v-2.7
				C17.6,31.2,16.7,30.1,15.1,30.1z M15.1,26.1c1.6,0,2.4-1,2.4-2.9v-2.3c0-1.9-0.8-2.8-2.4-2.8s-2.4,0.9-2.4,2.8v2.3
				C12.7,25.1,13.5,26.1,15.1,26.1z M2.5,8.4V49H63V8.4H2.5z M22.1,36.4c0,4.6-2.5,7.1-7,7.1s-7-2.5-7-7.1v-2.5
				c0-2.7,0.8-4.7,2.9-5.8V28c-1.9-1-2.8-2.8-2.8-5.6V21c0-4.6,2.5-7,6.9-7s6.9,2.4,6.9,7v1.3c0,2.8-0.9,4.6-2.8,5.6V28
				c2.1,1.1,2.9,3.1,2.9,5.8V36.4z M38.7,43h-4.5V30.1h-4.8V43h-4.5V14.4h4.5v11.7h4.8V14.4h4.5V43z M51.3,43
				c-0.2-0.7-0.4-1.2-0.4-3.5v-5.2c0-2.7-0.8-3.5-2.8-3.5h-1.6V43H42V14.4h6.7c4.7,0,6.7,2.2,6.7,6.6v1.8c0,2.9-0.9,4.8-2.9,5.6v0.1
				c2.2,0.7,3,2.8,3,6.1v5c0,1.4,0,2.4,0.5,3.5L51.3,43L51.3,43z M48.6,18.5h-2v8.2h1.6c1.7,0,2.7-0.7,2.7-3v-2.2
				C50.9,19.4,50.2,18.5,48.6,18.5z"/>
		</g>
	</g>
</g>
</svg>
