<?xml version="1.0" encoding="utf-8"?>
<!-- Generator: Adobe Illustrator 27.5.0, SVG Export Plug-In . SVG Version: 6.00 Build 0)  -->
<svg version="1.1" id="Layer_1" xmlns="http://www.w3.org/2000/svg" xmlns:xlink="http://www.w3.org/1999/xlink" x="0px" y="0px"
	 viewBox="0 0 340 53" style="enable-background:new 0 0 340 53;" xml:space="preserve">
<style type="text/css">
	.st0{fill:#969696;}
	.st1{fill-rule:evenodd;clip-rule:evenodd;fill:#969696;}
</style>
<g id="Group_18110" transform="translate(-834.24 -1005)">
	<path id="Path_13515" class="st0" d="M1062.1,1032.2v24h6.2v-8.1h8.4v-5.7h-8.4v-4.5h10.3v-5.7H1062.1z"/>
	<g id="Group_18109" transform="translate(834.24 1005)">
		<path id="Path_13516" class="st1" d="M263.6,39.2c0-3.5-2.3-6.4-5.7-6.4c-3.3,0-5.7,2.8-5.7,6.4c0,3.5,2.4,6.4,5.7,6.4
			C261.2,45.6,263.6,42.8,263.6,39.2 M258.5,51.5h-1.3c-7-0.3-11.8-5.2-11.8-12.3c0-7.3,5.1-12.4,12.5-12.4c7.3,0,12.5,5,12.5,12.4
			C270.3,46.3,265.5,51.2,258.5,51.5"/>
		<path id="Path_13517" class="st1" d="M290.3,39.2c0-3.5-2.3-6.4-5.7-6.4c-3.3,0-5.7,2.8-5.7,6.4c0,3.5,2.4,6.4,5.7,6.4
			C288,45.6,290.3,42.8,290.3,39.2 M285.3,51.5H284c-7-0.3-11.8-5.2-11.8-12.3c0-7.3,5.1-12.4,12.5-12.4c7.3,0,12.5,5,12.5,12.4
			C297.1,46.3,292.2,51.2,285.3,51.5"/>
		<path id="Path_13518" class="st1" d="M308,45.5c3.3,0,6-2.6,6.1-5.9c0-0.1,0-0.3,0-0.4c0-3.6-2.4-6.3-5.6-6.3h-2.6v12.6H308z
			 M299.7,27.2h8.6c7.6,0,12.4,4.9,12.4,12c0,7.1-4.6,12-12.3,12h-8.8L299.7,27.2z"/>
		<path id="Path_13519" class="st1" d="M321.7,47.7l3.6-4.5c1.4,1.6,3.4,2.5,5.5,2.7c1.5,0,2.1-0.8,2.1-1.6c0-0.9-0.5-1.5-3-2.3
			c-3.6-1.2-7.3-3-7.3-7.9c0-4.1,3.4-7.2,8-7.3c3.1-0.1,6.2,1.1,8.5,3.2l-3.5,4.6c-2.1-1.6-3.4-2.2-4.6-2.2c-1.1,0-1.7,0.6-1.7,1.4
			c0,0.8,0.5,1.5,2.9,2.4c4.3,1.6,7.5,2.7,7.5,7.3c0,5.7-4.6,7.7-8.5,7.9H330C326.8,51.4,323.9,50,321.7,47.7"/>
		<path id="Path_13520" class="st1" d="M52.3,47.7l3.6-4.4c1.4,1.6,3.4,2.5,5.5,2.7c1.5,0,2.1-0.8,2.1-1.6c0-0.9-0.5-1.5-3-2.3
			c-3.6-1.2-7.3-3-7.3-7.9c0-4.1,3.4-7.2,8-7.3c3.1-0.1,6.2,1.1,8.5,3.2l-3.5,4.6c-2.1-1.6-3.4-2.2-4.6-2.2c-1.1,0-1.7,0.6-1.7,1.4
			c0,0.8,0.5,1.5,2.9,2.4c4.3,1.6,7.5,2.7,7.5,7.3c0,5.7-4.6,7.7-8.5,7.9h-1.2C57.5,51.4,54.5,50,52.3,47.7L52.3,47.7z"/>
		<path id="Path_13521" class="st1" d="M72.3,41.1V27.2h6.5v13.5c0,2.5,1.1,4.8,3.6,4.8c2.1,0,3.7-1.7,3.7-4.8V27.2h6.5v13.9
			c0,6.1-3.3,10.1-9.5,10.4h-1.3C76.1,51.3,72.3,47.7,72.3,41.1"/>
		<path id="Path_13522" class="st1" d="M95.2,27.2h6.1l8.5,13.6l0.1,0V27.2h6.3v24h-6.3l-8.3-13.1h-0.1v13.1h-6.3V27.2z"/>
		<path id="Path_13523" class="st1" d="M118.5,39.2c0-6.9,4.5-12.4,12.3-12.4c3.8,0,7.4,1.6,9.9,4.5l-4.6,3.8
			c-1.4-1.4-3.3-2.2-5.3-2.2c-2.9,0-5.5,2.3-5.5,6.4c0,3.4,2.1,6.4,5.8,6.4c1.2,0,2.5-0.3,3.6-0.8v-2.2h-4.1v-5.2h10.1v11.1
			c-2.8,1.9-6.2,2.9-9.6,2.9C124.1,51.5,118.5,47.2,118.5,39.2"/>
		<rect id="Rectangle_4191" x="143.3" y="27.2" class="st0" width="6.6" height="24"/>
		<path id="Path_13524" class="st1" d="M151.9,27.2h7l4.6,14.8h0.1l4.6-14.8h6.9l-8.7,24h-5.6L151.9,27.2z"/>
		<path id="Path_13525" class="st1" d="M176.8,27.2h15.9v5.7H183v3.6h7.6V42H183v3.5h9.7v5.7h-15.9V27.2z"/>
		<path id="Path_13526" class="st1" d="M194.9,27.2h6.1l8.5,13.6l0.1,0V27.2h6.3v24h-6.3l-8.3-13.1h-0.1v13.1h-6.3V27.2z"/>
		<path id="Path_13527" class="st1" d="M44.6,26.4v2.7c-12.5,0-22.6,10.1-22.6,22.6c0,0,0,0,0,0v0h-2.7v0
			C19.2,37.7,30.6,26.4,44.6,26.4"/>
		<path id="Path_13528" class="st1" d="M44.6,32v2.7c-9.4,0-16.9,7.6-17,16.9v0h-2.7v0C24.9,40.9,33.7,32.1,44.6,32"/>
		<path id="Path_13529" class="st1" d="M44.6,37.7v2.7c-6.2,0-11.3,5.1-11.3,11.3v0h-2.7v0C30.6,44,36.9,37.7,44.6,37.7"/>
		<path id="Path_13530" class="st1" d="M44.6,43.4v2.7c-3.1,0-5.6,2.5-5.6,5.6v0.1h-2.7v0C36.3,47.1,40,43.4,44.6,43.4"/>
		<path id="Path_13531" class="st1" d="M44.6,49v2.7h-2.6v0C42,50.3,43.1,49.1,44.6,49"/>
		<path id="Path_13532" class="st1" d="M44.6,13.7c0,7-5.7,12.7-12.7,12.7s-12.7-5.7-12.7-12.7c0-7,5.7-12.7,12.7-12.7
			C38.9,1,44.6,6.7,44.6,13.7"/>
		<path id="Path_13533" class="st1" d="M19.2,32.7L19.2,32.7c0-10.5-8.5-19-19-19c0,0,0,0,0,0v19c0,10.5,8.5,19,19,19V32.7z"/>
	</g>
</g>
</svg>
