<?xml version="1.0" encoding="utf-8"?>
<!-- Generator: Adobe Illustrator 27.5.0, SVG Export Plug-In . SVG Version: 6.00 Build 0)  -->
<svg version="1.1" id="Layer_1" xmlns="http://www.w3.org/2000/svg" xmlns:xlink="http://www.w3.org/1999/xlink" x="0px" y="0px"
	 viewBox="0 0 91 98" style="enable-background:new 0 0 91 98;" xml:space="preserve">
<style type="text/css">
	.st0{clip-path:url(#SVGID_00000170959605251287445180000009480438531303216045_);}
</style>
<g>
	<defs>
		<rect id="SVGID_1_" x="0.6" y="0.8" width="89.9" height="96.9"/>
	</defs>
	<clipPath id="SVGID_00000021831489703274715600000013811488033170029443_">
		<use xlink:href="#SVGID_1_"  style="overflow:visible;"/>
	</clipPath>
	
		<g id="Group_18119" transform="translate(0 0)" style="clip-path:url(#SVGID_00000021831489703274715600000013811488033170029443_);">
		<path id="Path_13539" d="M43.8,55.1L26.3,32.7c-0.5-0.6-0.6-1.5-0.2-2.3c0.3-0.7,13.1-18.7,62.4-15.8c1.2,0,2.1,1,2.1,2.1
			c0,1.2-0.9,2.1-2.1,2.1c0,0,0,0,0,0c-40-2.1-54.9,9.4-57.8,12.4l16.5,21.1c0.7,0.9,0.6,2.2-0.3,2.9c0,0,0,0-0.1,0.1
			C45.9,56.1,44.6,56,43.8,55.1"/>
		<path id="Path_13540" d="M31.2,97c-0.5-0.6-13.3-14.9-9.4-25.8c2-5.6,7.8-9.2,17.3-10.6c9.9-1.5,16-4.4,17.5-8.5
			c1.7-4.6-2.7-9.8-2.8-9.9L43.3,29.4c-0.7-0.9-0.6-2.2,0.3-3c0.9-0.7,2.2-0.6,3,0.3c0,0,0,0,0,0l10.6,12.8
			c0.2,0.2,6.1,7.1,3.5,14.1c-2.1,5.8-9.1,9.5-20.9,11.3c-7.8,1.1-12.5,3.8-13.9,7.8c-2.5,7.1,5.3,18,8.6,21.5
			c0.8,0.9,0.7,2.2-0.1,3C33.3,97.9,32,97.8,31.2,97"/>
		<path id="Path_13541" d="M82.1,94.5l-28.4-28c-0.8-0.8-0.8-2.2,0-3c0.8-0.8,2.1-0.9,3,0c0,0,0,0,0,0l28.4,28c0.9,0.8,1,2.1,0.2,3
			c-0.7,0.9-2,1-2.9,0.3C82.3,94.7,82.2,94.6,82.1,94.5"/>
		<path id="Path_13542" d="M4.1,39.8C-1,35,1,26.7,1.1,26.3c0.3-1.1,1.4-1.9,2.5-1.6c1.1,0.3,1.9,1.4,1.6,2.5c0,0,0,0,0,0.1
			c0,0.1-1.5,6.3,1.8,9.3c2.5,2.4,7.7,2.4,14.9,0c1.1-0.4,2.3,0.2,2.7,1.4c0,0,0,0,0,0c0.4,1.1-0.3,2.3-1.4,2.7
			C10.5,45.1,6.1,41.7,4.1,39.8"/>
		<path id="Path_13543" d="M29.7,20.5c5.4,0,9.9-4.3,9.9-9.8c0-5.4-4.3-9.9-9.8-9.9s-9.9,4.3-9.9,9.8c0,0,0,0,0,0.1
			C19.9,16.1,24.3,20.5,29.7,20.5 M29.7,5.1c3.1,0,5.6,2.5,5.6,5.5c0,3.1-2.5,5.6-5.5,5.6c-3.1,0-5.6-2.5-5.6-5.5c0,0,0,0,0,0
			C24.1,7.6,26.6,5.1,29.7,5.1"/>
	</g>
</g>
</svg>
